<svg width="18" height="20" viewBox="0 0 18 20" fill="none" xmlns="http://www.w3.org/2000/svg">
<path d="M10.5115 15.5556C10.2293 15.5556 9.98236 15.8025 9.98236 16.0847V18.4127C9.98236 18.6949 9.73545 18.9418 9.45326 18.9418H1.94004C1.44621 18.9418 1.0582 18.5538 1.0582 18.06V1.94004C1.0582 1.44621 1.44621 1.0582 1.94004 1.0582H9.45326C9.73545 1.0582 9.98236 1.30511 9.98236 1.5873V3.63316C9.98236 3.91534 10.2293 4.16226 10.5115 4.16226C10.7936 4.16226 11.0406 3.91534 11.0406 3.63316V1.5873C11.0406 0.705467 10.3351 0 9.45326 0H1.94004C0.881834 0 0 0.881834 0 1.94004V18.06C0 19.1182 0.881834 20 1.94004 20H9.45326C10.3351 20 11.0406 19.2945 11.0406 18.4127V16.0847C11.0406 15.8025 10.7936 15.5556 10.5115 15.5556Z" fill="current"/>
<path d="M17.3196 10.1941C17.3196 10.1941 17.3196 10.1588 17.3196 10.1941C17.3549 10.1235 17.3549 10.053 17.3549 10.0177C17.3549 9.94714 17.3549 9.91187 17.3196 9.84132C17.3196 9.84132 17.3196 9.84132 17.3196 9.80605C17.2843 9.77078 17.2843 9.70023 17.2491 9.66496L13.8981 5.60852C13.7217 5.39688 13.369 5.36161 13.1573 5.53797C12.9457 5.71434 12.9104 6.06707 13.0868 6.27871L15.7323 9.48859H4.97392C4.69174 9.48859 4.44482 9.7355 4.44482 10.0177C4.44482 10.2999 4.69174 10.5468 4.97392 10.5468H15.697L12.9104 13.933C12.7341 14.1447 12.7693 14.4974 12.981 14.6738C13.0868 14.7443 13.1926 14.7796 13.3337 14.7796C13.4748 14.7796 13.6512 14.709 13.757 14.6032L17.2843 10.3704C17.2843 10.2999 17.2843 10.2293 17.3196 10.1941Z" fill="current"/>
</svg>
