<svg width="28" height="24" viewBox="0 0 28 24" fill="none" xmlns="http://www.w3.org/2000/svg">
<g clip-path="url(#clip0)">
<path d="M13.583 5.87502C13.208 5.87502 12.9163 6.16668 12.9163 6.54168V7.29168C11.3747 7.54168 10.208 8.62502 10.208 9.95835C10.208 11.4583 11.7497 12.6667 13.6247 12.6667C14.7497 12.6667 15.6663 13.2917 15.6663 14.0417C15.6663 14.7917 14.708 15.4167 13.583 15.4167C12.958 15.4167 12.3747 15.2083 11.9997 14.875C11.708 14.625 11.2913 14.6667 11.0413 14.9167C10.7913 15.2083 10.833 15.625 11.083 15.875C11.5413 16.2917 12.208 16.5833 12.8747 16.7083V17.4583C12.8747 17.8333 13.1663 18.125 13.5413 18.125C13.9163 18.125 14.208 17.8333 14.208 17.4583V16.7083C15.7497 16.4583 16.9163 15.375 16.9163 14.0417C16.9163 12.5417 15.3747 11.3333 13.4997 11.3333C12.3747 11.3333 11.458 10.7083 11.458 9.95835C11.458 9.20835 12.3747 8.58335 13.4997 8.58335C14.1247 8.58335 14.708 8.79168 15.083 9.12502C15.3747 9.37502 15.7913 9.33335 16.0413 9.08335C16.2913 8.79168 16.2497 8.37502 15.9997 8.12502C15.5413 7.70835 14.8747 7.41668 14.208 7.29168V6.54168C14.2913 6.20835 13.958 5.87502 13.583 5.87502Z" fill="#6C6C8A"/>
<path d="M26.7917 4.95833C26.4584 4.83333 26.1251 5.04167 26.0001 5.33333L25.0001 8.375C23.4167 3.45833 18.7501 0 13.5417 0C8.25008 0 3.54174 3.54167 2.04174 8.58333C1.95841 8.91667 2.12508 9.25 2.45841 9.375C2.50008 9.375 2.58341 9.41667 2.62508 9.41667C2.87508 9.41667 3.12508 9.25 3.20841 8.95833C4.58341 4.41667 8.79174 1.25 13.5417 1.25C18.1667 1.25 22.2917 4.29167 23.7501 8.66667L21.1251 7.79167C20.7917 7.66667 20.4584 7.875 20.3334 8.16667C20.2084 8.5 20.4167 8.83333 20.7084 8.95833L24.9167 10.375C25.0001 10.4167 25.0834 10.4167 25.1667 10.4167C25.4167 10.4167 25.6667 10.25 25.7501 10L27.1667 5.79167C27.2917 5.41667 27.0834 5.08333 26.7917 4.95833Z" fill="#6C6C8A"/>
<path d="M24.5415 14.9584C24.2082 14.8334 23.8749 15.0417 23.7499 15.375C22.2915 19.7917 18.2082 22.7917 13.5415 22.7917C8.91653 22.7917 4.87486 19.875 3.37486 15.5417L6.24986 16.75C6.58319 16.875 6.91653 16.75 7.08319 16.4167C7.20819 16.0834 7.08319 15.75 6.74986 15.5834L2.66653 13.8334C2.33319 13.7084 1.99986 13.8334 1.83319 14.1667L0.0831918 18.25C-0.0418082 18.5834 0.0831918 18.9167 0.416525 19.0834C0.499859 19.125 0.583192 19.125 0.666525 19.125C0.916525 19.125 1.12486 19 1.24986 18.75L2.33319 16.2084C4.08319 20.9167 8.54152 24.0417 13.5832 24.0417C18.7915 24.0417 23.3749 20.7084 24.9999 15.7917C25.0415 15.4167 24.8749 15.0834 24.5415 14.9584Z" fill="#6C6C8A"/>
</g>
<defs>
<clipPath id="clip0">
<rect width="27.2083" height="24" fill="white"/>
</clipPath>
</defs>
</svg>
