<svg width="24" height="22" viewBox="0 0 24 22" fill="none" xmlns="http://www.w3.org/2000/svg">
<g clip-path="url(#clip0)">
<path d="M6.61183 22H4.58729C3.6875 22 2.96766 21.2802 2.96766 20.3804V8.59305H1.61797C0.98811 8.59305 0.403243 8.23313 0.133304 7.64826C-0.136634 7.06339 -0.0466546 6.38855 0.358253 5.89366L5.08218 0.224949C5.21715 0.0899795 5.39711 0 5.57707 0C5.75702 0 5.98197 0.0899795 6.11694 0.224949L10.7959 5.93865C11.2008 6.43354 11.2908 7.10838 11.0208 7.69325C10.7509 8.27812 10.166 8.63804 9.53617 8.63804H8.23146V20.3804C8.23146 21.2802 7.51163 22 6.61183 22ZM5.57707 1.7546L1.39302 6.79346C1.30304 6.92843 1.34803 7.0184 1.34803 7.10838C1.34803 7.19836 1.43801 7.28834 1.61797 7.28834H3.59752C3.95743 7.28834 4.27236 7.60327 4.27236 7.96319V20.3804C4.27236 20.5153 4.40733 20.6503 4.5423 20.6503H6.56684C6.70181 20.6503 6.83678 20.5153 6.83678 20.3804V7.9182C6.83678 7.55828 7.15171 7.24335 7.51163 7.24335H9.49118C9.62615 7.24335 9.71612 7.15337 9.76112 7.06339C9.8061 6.97341 9.8061 6.88344 9.71612 6.74847L5.57707 1.7546Z" fill="white"/>
<path d="M18.3559 22C18.1759 22 17.951 21.91 17.816 21.7751L13.1371 16.0613C12.7322 15.5665 12.6422 14.8916 12.9121 14.3067C13.1821 13.7219 13.7669 13.362 14.3968 13.362H15.7015V1.61963C15.7015 0.719836 16.4213 0 17.3211 0H19.3457C20.2454 0 20.9653 0.719836 20.9653 1.61963V13.362H22.27C22.8998 13.362 23.4847 13.7219 23.7547 14.3067C24.0246 14.8916 23.9346 15.5665 23.5297 16.0613L18.8508 21.7751C18.7608 21.91 18.5358 22 18.3559 22ZM14.1718 15.2065L18.3559 20.2904L22.5399 15.2065C22.6299 15.0716 22.5849 14.9816 22.5849 14.8916C22.5849 14.8016 22.4949 14.7117 22.315 14.7117H20.3354C19.9755 14.7117 19.6606 14.3967 19.6606 14.0368V1.61963C19.6606 1.48466 19.5256 1.34969 19.3457 1.34969H17.3211C17.1861 1.34969 17.0512 1.48466 17.0512 1.61963V14.0368C17.0512 14.3967 16.7362 14.7117 16.3763 14.7117H14.3968C14.2618 14.7117 14.1718 14.8016 14.1268 14.8916C14.0818 14.9816 14.0818 15.0716 14.1718 15.2065Z" fill="white"/>
</g>
<defs>
<clipPath id="clip0">
<rect width="23.9346" height="22" fill="white"/>
</clipPath>
</defs>
</svg>
