<svg width="14" height="12" viewBox="0 0 14 12" fill="none" xmlns="http://www.w3.org/2000/svg">
  <g clip-path="url(#clip0_2962_1672)">
    <path d="M13.6986 5.75337C13.6438 5.64378 13.589 5.53419 13.5343 5.4794L8.32877 0.273919C8 -0.054848 7.50685 -0.054848 7.17808 0.273919C7.0137 0.438303 6.95891 0.657481 6.95891 0.876659C6.95891 1.09584 7.0137 1.31501 7.17808 1.4794L10.9589 5.26022L0.821918 5.04104C0.383562 5.04104 0 5.36981 0 5.86296C0 6.30132 0.383562 6.68488 0.821918 6.68488L10.9589 6.84926L7.17808 10.6301C6.84932 10.9588 6.84932 11.452 7.17808 11.7808C7.50685 12.1095 8 12.1095 8.32877 11.7808L13.4795 6.63008C13.5343 6.57529 13.589 6.4657 13.6438 6.35611C13.6986 6.24652 13.6986 6.19173 13.6986 6.08214C13.7534 5.91775 13.7534 5.80817 13.6986 5.75337Z" fill="#2CD19E" />
  </g>
  <defs>
    <clipPath id="clip0_2962_1672">
      <rect width="13.7534" height="12" fill="white" />
    </clipPath>
  </defs>
</svg>
  