<svg width="23" height="15" viewBox="0 0 23 15" fill="none" xmlns="http://www.w3.org/2000/svg">
  <g clip-path="url(#clip0_2962_2061)">
    <path d="M20.0649 14.5H2.19459C0.94054 14.5 0 13.4811 0 12.3054V2.19459C0 1.01892 1.01892 0 2.19459 0H20.0649C21.3189 0 22.2595 1.01892 22.2595 2.19459V12.227C22.2595 13.4811 21.3189 14.5 20.0649 14.5ZM2.19459 1.56757C1.88108 1.56757 1.56757 1.88108 1.56757 2.19459V12.227C1.56757 12.6189 1.88108 12.8541 2.19459 12.8541H20.0649C20.4568 12.8541 20.6919 12.5405 20.6919 12.227V2.19459C20.6919 1.8027 20.3784 1.56757 20.0649 1.56757H2.19459ZM9.7973 11.7568H3.68378C3.29189 11.7568 2.97838 11.6 2.74324 11.2865C2.50811 10.973 2.50811 10.5811 2.58649 10.2676C3.05676 9.01351 4.07568 8.07297 5.25135 7.6027C4.54595 7.13243 4.07568 6.34865 4.07568 5.40811C4.07568 3.91892 5.25135 2.74324 6.74054 2.74324C8.22973 2.74324 9.40541 3.91892 9.40541 5.40811C9.40541 6.34865 8.93513 7.13243 8.22973 7.6027C9.40541 8.07297 10.4243 9.01351 10.8946 10.2676C11.0514 10.5811 10.973 10.973 10.7378 11.2865C10.5027 11.6 10.1892 11.7568 9.7973 11.7568ZM4.38919 10.1892H9.17027C8.62162 9.40541 7.75946 8.85676 6.81892 8.85676C5.87838 8.85676 4.85946 9.40541 4.38919 10.1892ZM6.74054 4.31081C6.11351 4.31081 5.64324 4.78108 5.64324 5.40811C5.64324 6.03514 6.11351 6.50541 6.74054 6.50541C7.36757 6.50541 7.83784 5.95676 7.83784 5.40811C7.83784 4.85946 7.36757 4.31081 6.74054 4.31081Z" fill="white" />
    <path d="M17.5571 6.19159H12.776C12.3057 6.19159 11.9922 5.87808 11.9922 5.40781C11.9922 4.93754 12.3057 4.62402 12.776 4.62402H17.5571C18.0273 4.62402 18.3408 4.93754 18.3408 5.40781C18.3408 5.87808 18.0273 6.19159 17.5571 6.19159Z" fill="white" />
    <path d="M17.5571 9.32733H12.776C12.3057 9.32733 11.9922 9.01382 11.9922 8.54355C11.9922 8.07328 12.3057 7.75977 12.776 7.75977H17.5571C18.0273 7.75977 18.3408 8.07328 18.3408 8.54355C18.3408 9.01382 18.0273 9.32733 17.5571 9.32733Z" fill="white" />
  </g>
  <defs>
    <clipPath id="clip0_2962_2061">
      <rect width="22.2595" height="14.5" fill="white" />
    </clipPath>
  </defs>
</svg>
  