<svg width="24" height="16" viewBox="0 0 24 16" fill="none" xmlns="http://www.w3.org/2000/svg">
  <g clip-path="url(#clip0_2969_2106)">
    <path d="M20.3077 6C20.3077 4.41379 19.6239 2.89655 18.5299 1.72414C17.3675 0.62069 15.9316 0 14.2906 0C11.6239 0 9.84616 1.65517 9.02564 3.17241C7.86325 2.62069 6.49573 2.68966 5.40171 3.37931C4.17094 4.13793 3.48718 5.44828 3.48718 7.03448C1.50427 7.44828 0 9.37931 0 11.5172C0 14.1379 2.11966 16 5.05983 16H19.0085C21.812 16 24.0684 13.7241 24.0684 10.8966C24 8.62069 22.4957 6.62069 20.3077 6ZM18.9402 14.6207H12.9915L13.0598 7.93103L15.453 10.3448C15.7265 10.6207 16.1368 10.6207 16.4103 10.3448C16.6838 10.069 16.6838 9.65517 16.4103 9.37931L12.8547 5.7931C12.8547 5.7931 12.7863 5.7931 12.7863 5.72414C12.718 5.65517 12.7179 5.65517 12.6496 5.65517C12.5812 5.65517 12.5128 5.65517 12.5128 5.58621H12.4444C12.3761 5.58621 12.2393 5.58621 12.1709 5.65517C12.1026 5.72414 12.0342 5.72414 11.9658 5.7931L8.34188 9.44827C8.06838 9.72414 8.06838 10.1379 8.34188 10.4138C8.47863 10.5517 8.68376 10.6207 8.82051 10.6207C8.95727 10.6207 9.16239 10.5517 9.29915 10.4138L11.7607 7.93103L11.6239 14.6207H5.05983C2.8718 14.6207 1.36752 13.3793 1.36752 11.5172C1.36752 10 2.46154 8.62069 3.82906 8.41379C4.44444 8.27586 4.8547 7.7931 4.8547 7.17241C4.8547 5.65517 5.53846 4.96552 6.15385 4.62069C6.5641 4.41379 6.97436 4.27586 7.45299 4.27586C7.86325 4.27586 8.20513 4.34483 8.54701 4.55172C8.82051 4.68965 9.16239 4.75862 9.50427 4.62069C9.84616 4.48276 10.0513 4.27586 10.2564 4C10.8718 2.75862 12.2393 1.51724 14.359 1.51724C15.5897 1.51724 16.6838 2 17.5727 2.89655C18.4615 3.7931 18.9402 5.03448 18.9402 6.27586C18.9402 6.89655 19.3504 7.37931 19.8974 7.51724C21.5385 7.93103 22.6325 9.37931 22.6325 11.1034C22.6325 12.9655 20.9915 14.6207 18.9402 14.6207Z" fill="white" />
  </g>
  <defs>
    <clipPath id="clip0_2969_2106">
      <rect width="24" height="16" fill="white" />
    </clipPath>
  </defs>
</svg>
  