<svg width="19" height="19" viewBox="0 0 19 19" fill="none" xmlns="http://www.w3.org/2000/svg">
  <g clip-path="url(#clip0_2962_2096)">
    <path d="M18.5678 7.34132L9.8595 0.144354C9.57162 -0.0715554 9.21177 -0.0715554 8.92389 0.144354L0.215554 7.34132C-0.000355113 7.55723 -0.0723248 7.84511 -0.000355108 8.13299C0.143584 8.42087 0.431463 8.63678 0.719342 8.63678H3.23828V17.561H1.72692C1.2951 17.561 1.00722 17.8489 1.00722 18.2807C1.00722 18.7125 1.2951 19.0004 1.72692 19.0004H17.5603C17.9921 19.0004 18.28 18.7125 18.28 18.2807C18.28 17.8489 17.9921 17.561 17.5603 17.561H15.5451V8.63678H18.064C18.3519 8.63678 18.6398 8.42087 18.7118 8.13299C18.8557 7.84511 18.7837 7.55723 18.5678 7.34132ZM4.67768 8.63678H6.83677V17.561H4.67768V8.63678ZM10.5072 8.63678V17.561H8.34813V8.63678H10.5072ZM14.1057 17.561H11.9466V8.63678H14.1057V17.561ZM2.73449 7.19738L9.42768 1.65572L16.1209 7.19738H2.73449Z" fill="white" />
  </g>
  <defs>
    <clipPath id="clip0_2962_2096">
      <rect width="18.7841" height="19" fill="white" />
    </clipPath>
  </defs>
</svg>
  