<svg width="22" height="20" viewBox="0 0 22 20" fill="none" xmlns="http://www.w3.org/2000/svg">
  <g clip-path="url(#clip0_2969_2098)">
    <path d="M18.0377 11.1701C18.0377 10.9437 18.1132 10.6418 18.1132 10.3399C18.1132 8.07575 17.0566 5.96254 15.3208 4.52858V4.45311C15.3208 1.96254 13.283 -0.0751953 10.7925 -0.0751953C8.30189 -0.0751953 6.33962 1.88707 6.26415 4.37764C4.37736 5.8116 3.24528 8.00028 3.24528 10.3399C3.24528 10.5663 3.24528 10.7927 3.24528 11.0946C1.35849 11.6229 0 13.3588 0 15.472C0 17.9625 2.03774 20.0003 4.5283 20.0003C6.26415 20.0003 7.77358 19.0191 8.5283 17.5097C9.20755 17.7361 9.88679 17.8116 10.6415 17.8116C11.2453 17.8116 11.9245 17.7361 12.5283 17.5852C13.283 19.0191 14.7925 20.0003 16.5283 20.0003C19.0189 20.0003 21.0566 17.9625 21.0566 15.472C21.0566 13.5097 19.7736 11.8493 18.0377 11.1701ZM10.7925 1.50971C12.4528 1.50971 13.8113 2.8682 13.8113 4.52858C13.8113 6.18896 12.4528 7.54745 10.7925 7.54745C9.13208 7.54745 7.77358 6.18896 7.77358 4.52858C7.69811 2.8682 9.0566 1.50971 10.7925 1.50971ZM4.5283 18.4908C2.86792 18.4908 1.50943 17.1324 1.50943 15.472C1.50943 13.8116 2.86792 12.4531 4.5283 12.4531C6.18868 12.4531 7.54717 13.8116 7.54717 15.472C7.54717 17.1324 6.18868 18.4908 4.5283 18.4908ZM12 15.472C12 15.6984 12 15.9248 12.0755 16.1512C11.0943 16.3776 10.0377 16.3776 9.0566 16.0757C9.0566 15.8493 9.13208 15.6984 9.13208 15.472C9.13208 13.0569 7.24528 11.0946 4.83019 10.9437C4.83019 10.7927 4.83019 10.5663 4.83019 10.4154C4.83019 8.83047 5.50943 7.24556 6.64151 6.18896C7.32075 7.84933 8.90566 9.05688 10.8679 9.05688C12.7547 9.05688 14.3396 7.9248 15.0189 6.3399C16.0755 7.3965 16.6792 8.90594 16.6792 10.4154C16.6792 10.5663 16.6792 10.7927 16.6792 10.9437C14.0377 10.9437 12 12.9814 12 15.472ZM16.5283 18.4908C14.8679 18.4908 13.5094 17.1324 13.5094 15.472C13.5094 13.8116 14.8679 12.4531 16.5283 12.4531C18.1887 12.4531 19.5472 13.8116 19.5472 15.472C19.5472 17.1324 18.1887 18.4908 16.5283 18.4908Z" fill="white" />
  </g>
  <defs>
    <clipPath id="clip0_2969_2098">
      <rect width="21.0566" height="20" fill="white" />
    </clipPath>
  </defs>
</svg>
  