<svg width="23" height="23" viewBox="0 0 23 23" fill="none" xmlns="http://www.w3.org/2000/svg">
  <path d="M10.8896 22.8H10.4642C9.78358 22.8 9.18806 22.2896 8.93284 21.694C8.84776 21.5239 8.84776 21.3537 8.84776 21.1836L8.76269 20.6731C8.76269 20.5881 8.76269 20.5881 8.76269 20.503L8.67761 20.4179C8.67761 20.4179 8.67761 20.4179 8.59254 20.4179C8.50746 20.3328 8.33731 20.3328 8.25224 20.2478C8.08209 20.1627 7.91194 20.1627 7.74179 20.0776C7.57164 19.9925 7.40149 19.9075 7.31642 19.8224C7.31642 19.8224 7.31642 19.8224 7.23134 19.8224C7.14627 19.8224 7.06119 19.8224 6.97612 19.9075C6.80597 19.9925 6.63582 20.0776 6.55075 20.1627L6.29552 20.3328C6.0403 20.503 5.7 20.6731 5.27463 20.7582C4.84925 20.7582 4.42388 20.5881 3.99851 20.2478L2.89254 19.1418C2.46716 18.7164 2.29702 18.206 2.46716 17.6104C2.55224 17.3552 2.72239 17.1 2.80746 16.8448L2.97761 16.5045C3.06269 16.3343 3.14776 16.2493 3.23284 16.0791C3.31791 15.994 3.31791 15.909 3.23284 15.8239C3.23284 15.7388 3.23284 15.7388 3.14776 15.6537L3.06269 15.5687C2.97761 15.3985 2.89254 15.3134 2.89254 15.1433C2.80746 14.9731 2.80746 14.803 2.72239 14.7179L2.55224 14.2075C2.55224 14.2075 2.55224 14.1224 2.46716 14.1224C2.46716 14.1224 2.38209 14.1224 2.38209 14.0373H2.29702C2.29702 14.0373 2.21194 14.0373 2.21194 13.9522V14.0373C2.04179 14.0373 1.95672 13.9522 1.78657 13.9522H1.61642C1.44627 13.9522 1.19104 13.8672 1.0209 13.7821C0.425373 13.5269 0 12.9313 0 12.3358V11.9104V10.8045C0 10.5493 0 10.1239 0.255224 9.78358C0.510448 9.44328 0.850746 9.18806 1.19104 9.10299L2.21194 8.84776C2.21194 8.84776 2.29702 8.84776 2.29702 8.76269H2.38209C2.38209 8.76269 2.38209 8.76269 2.46716 8.67761C2.46716 8.67761 2.46716 8.59254 2.55224 8.59254L2.63731 8.33731C2.80746 8.08209 2.80746 7.82687 2.89254 7.65672C2.97761 7.48657 3.06269 7.40149 3.06269 7.23134V7.14627V7.06119V6.97612C3.06269 6.89104 3.06269 6.89105 2.97761 6.89105L2.46716 5.95522C2.12687 5.3597 2.21194 4.59403 2.63731 4.08358C2.72239 3.99851 2.80746 3.91343 2.89254 3.82836L3.74328 2.97761C3.91343 2.72239 4.08358 2.55224 4.25373 2.46716C4.76418 2.12687 5.44478 2.21194 5.95522 2.55224L6.63582 2.97761C6.80597 3.06269 6.89105 3.14776 6.89105 3.14776H6.97612C7.06119 3.14776 7.06119 3.14776 7.14627 3.14776C7.14627 3.14776 7.14627 3.14776 7.23134 3.14776L7.48657 3.06269C7.65672 2.97761 7.82687 2.89254 7.99701 2.89254C8.16716 2.80746 8.33731 2.72239 8.50746 2.72239H8.59254H8.67761C8.67761 2.72239 8.67761 2.72239 8.76269 2.63731C8.76269 2.63731 8.76269 2.55224 8.84776 2.55224C8.84776 2.55224 8.84776 2.55224 8.84776 2.46716L9.01791 1.53134C9.10299 0.935821 9.44328 0.595522 9.86866 0.340299C10.1239 0 10.4642 0 10.8045 0H11.3149C11.6552 0 11.9955 0 12.3358 0C13.0164 0 13.697 0.510448 13.8672 1.19104C13.8672 1.36119 13.9522 1.53134 13.9522 1.70149V1.87164C13.9522 1.95672 14.0373 2.12687 14.0373 2.21194C14.0373 2.21194 14.0373 2.29701 14.1224 2.29701V2.38209L14.2075 2.46716H14.2925C14.6328 2.55224 14.8881 2.72239 15.2284 2.80746C15.3134 2.80746 15.3985 2.89254 15.4836 2.89254L15.7388 2.97761C15.8239 2.97761 15.8239 2.97761 15.909 2.97761L16.5896 2.55224C16.9299 2.29701 17.2701 2.12687 17.6955 2.12687C18.1209 2.12687 18.5463 2.29701 18.8866 2.63731L19.9925 3.74328C20.4179 4.16866 20.5881 4.76418 20.4179 5.27463C20.4179 5.78507 20.2478 5.95522 20.1627 6.21045L19.9925 6.55075C19.9075 6.7209 19.8224 6.80597 19.7373 6.97612C19.7373 7.06119 19.7373 7.14627 19.7373 7.23134V7.31642C19.7373 7.40149 19.8224 7.48657 19.8224 7.57164C19.9075 7.74179 19.9925 7.82687 19.9925 7.99701C20.0776 8.16716 20.0776 8.33731 20.1627 8.42239C20.1627 8.50746 20.1627 8.50746 20.2478 8.59254C20.2478 8.59254 20.2478 8.59254 20.2478 8.67761C20.2478 8.67761 20.2478 8.67761 20.3328 8.76269L20.4179 8.84776C20.5881 8.93284 20.6731 8.93284 20.8433 8.93284L21.1836 9.01791C21.4388 9.01791 21.694 9.10299 21.8642 9.18806C22.3746 9.44328 22.7149 9.95373 22.7149 10.6343V11.7403V12.2507C22.7149 12.591 22.7149 13.0164 22.3746 13.3567C22.0343 13.7821 21.694 13.8672 21.2687 13.9522L20.4179 14.1224H20.3328C20.3328 14.1224 20.2478 14.1224 20.2478 14.2075C20.2478 14.2075 20.2478 14.2075 20.1627 14.2075C20.1627 14.2075 20.1627 14.2925 20.0776 14.2925C19.9925 14.5478 19.9075 14.803 19.7373 15.1433L19.5672 15.5687V15.6537V15.7388L19.6522 15.8239L20.2478 16.7597C20.5881 17.3552 20.5881 18.0358 20.1627 18.6313C20.0776 18.7164 19.9925 18.8866 19.8224 18.9716L18.9716 19.8224C18.8015 19.9925 18.7164 20.0776 18.5463 20.2478C18.0358 20.5881 17.3552 20.5881 16.8448 20.2478L16.1642 19.8224L16.0791 19.7373C15.994 19.7373 15.994 19.6522 15.909 19.6522H15.8239C15.7388 19.6522 15.7388 19.6522 15.7388 19.6522H15.6537L15.5687 19.7373H15.4836C15.3134 19.8224 15.2284 19.9075 15.0582 19.9075C14.8881 19.9925 14.7179 19.9925 14.5478 20.0776L14.3776 20.1627C14.3776 20.1627 14.3776 20.1627 14.2925 20.1627L14.2075 20.2478C14.2075 20.2478 14.2075 20.2478 14.2075 20.3328V20.4179V20.503L14.1224 20.5881H14.2075L14.0373 21.4388C13.9522 22.0343 13.6119 22.3746 13.1866 22.6299C12.8463 22.8 12.506 22.8 12.2507 22.8H10.8896ZM10.5493 21.1836C10.6343 21.1836 10.7194 21.1836 10.8896 21.1836H12.2507L12.506 20.1627C12.591 19.6522 12.9313 19.1418 13.4418 18.8866C13.6119 18.7164 13.8672 18.7164 14.0373 18.6313C14.1224 18.6313 14.2075 18.5463 14.2925 18.5463C14.3776 18.4612 14.5478 18.4612 14.6328 18.3761C14.803 18.291 14.8881 18.206 15.0582 18.206C15.6537 17.9507 16.3343 18.0358 16.8448 18.3761L17.6955 18.9716L18.291 18.3761C18.5463 18.1209 18.7164 17.9507 18.9716 17.6955L18.4612 16.9298C18.1209 16.4194 18.0358 15.994 18.0358 15.5687C18.0358 15.2284 18.206 14.8881 18.291 14.6328L18.3761 14.5478C18.4612 14.2925 18.5463 14.0373 18.6313 13.7821C18.8866 13.1866 19.397 12.6761 19.9925 12.506C20.1627 12.4209 20.3328 12.4209 20.503 12.4209L21.0985 12.3358C21.0985 12.3358 21.0985 12.3358 21.1836 12.3358V10.6343C21.0134 10.6343 20.9284 10.5493 20.8433 10.5493L20.4179 10.3791C20.1627 10.294 19.9075 10.294 19.6522 10.1239C19.397 9.95373 19.1418 9.78358 18.8866 9.44328C18.7164 9.18806 18.6313 9.01791 18.5463 8.76269L18.4612 8.59254C18.3761 8.42239 18.3761 8.33731 18.291 8.16716C18.1209 7.74179 17.8657 7.31642 17.9507 6.7209C18.0358 6.29552 18.206 5.95522 18.4612 5.61493L18.9716 5.10448L17.7806 3.91343L17.1851 4.25373C17.0149 4.33881 16.8448 4.42388 16.7597 4.50896C16.4194 4.6791 16.0791 4.76418 15.6537 4.76418C15.2284 4.76418 14.9731 4.59403 14.6328 4.42388C14.3776 4.33881 14.1224 4.16866 13.8672 4.08358C13.6119 3.99851 13.2716 3.82836 13.0164 3.57313C12.7612 3.40298 12.591 2.97761 12.4209 2.46716L12.2507 1.61642C12.2507 1.61642 12.2507 1.61642 12.2507 1.53134C11.9104 1.53134 11.6552 1.53134 11.3149 1.53134H10.5493V1.70149C10.4642 1.95672 10.4642 2.21194 10.3791 2.46716C10.294 3.06269 9.95373 3.48806 9.52836 3.74328C9.35821 3.91343 9.10299 3.99851 8.84776 3.99851C8.76269 3.99851 8.67761 4.08358 8.67761 4.08358C8.42239 4.33881 8.33731 4.42388 8.16716 4.42388L7.91194 4.59403C7.23134 4.84925 6.55075 4.84925 5.95522 4.42388L5.10448 3.82836L4.08358 4.84925C3.99851 4.93433 3.91343 5.0194 3.82836 5.10448L4.33881 5.87015C4.50896 6.12537 4.76418 6.63582 4.76418 7.23134C4.76418 7.57164 4.59403 7.91194 4.42388 8.16716C4.33881 8.42239 4.25373 8.67761 4.16866 8.93284C3.91343 9.61343 3.40299 10.1239 2.80746 10.294C2.63731 10.3791 2.46716 10.3791 2.29702 10.3791L1.70149 10.5493C1.70149 10.5493 1.70149 10.5493 1.61642 10.5493V12.2507C1.78657 12.2507 1.87164 12.3358 2.04179 12.3358L2.38209 12.4209C2.63731 12.506 2.89254 12.506 3.23284 12.6761C3.48806 12.8463 3.74328 13.0164 3.99851 13.3567C4.16866 13.5269 4.25373 13.7821 4.25373 14.0373C4.25373 14.1224 4.33881 14.2075 4.33881 14.2075C4.42388 14.3776 4.42388 14.4627 4.50896 14.6328C4.59403 14.7179 4.59403 14.8881 4.6791 14.9731C4.84925 15.3134 4.84925 15.7388 4.76418 16.0791C4.6791 16.5045 4.50896 16.7597 4.33881 17.0149L4.16866 17.3552C4.08358 17.4403 3.99851 17.6104 3.91343 17.6955L5.10448 18.9716L5.7 18.5463C5.87015 18.4612 6.0403 18.3761 6.21045 18.291C6.55075 18.1209 6.89105 18.0358 7.31642 18.0358C7.65672 18.0358 7.99702 18.206 8.25224 18.291C8.59254 18.4612 8.84776 18.5463 9.10299 18.6313C9.44328 18.7164 9.69851 18.8866 9.95373 19.1418C10.294 19.4821 10.4642 19.9075 10.5493 20.2478V21.1836C10.5493 21.0985 10.5493 21.1836 10.5493 21.1836ZM17.6104 18.8866H17.6955C17.6955 18.8866 17.6955 18.8866 17.6104 18.8866ZM9.78358 1.61642C9.86866 1.70149 9.86866 1.78657 10.0388 1.78657C9.86866 1.70149 9.86866 1.61642 9.78358 1.61642Z" fill="white" />
  <path d="M11.3998 16.5044C10.6342 16.5044 9.95358 16.3342 9.27298 15.9939C8.33716 15.5686 7.57149 14.888 6.97597 13.9522C6.46552 13.0163 6.12522 11.9954 6.21029 10.8895C6.29537 9.78349 6.72074 8.84767 7.40134 7.99693C8.76253 6.38051 11.1446 5.69991 13.1013 6.46558C14.1222 6.80588 14.973 7.48648 15.5685 8.33723C16.164 9.18797 16.5043 10.2089 16.5043 11.3148C16.5043 11.5701 16.5043 11.8253 16.4192 12.1656C16.0789 14.2074 14.4625 15.9939 12.3357 16.4193C12.0804 16.5044 11.7401 16.5044 11.3998 16.5044ZM10.8894 14.888C10.8894 14.888 10.9745 14.888 10.8894 14.888C11.1446 14.888 11.3148 14.888 11.4849 14.888C11.57 14.888 11.6551 14.888 11.8252 14.888H11.9103H11.9954C12.1655 14.888 12.3357 14.8029 12.5058 14.7178L12.676 14.6327C12.8461 14.5477 12.9312 14.5477 13.0163 14.4626C13.1864 14.3775 13.3566 14.2924 13.5267 14.1223L13.6118 14.0372L13.6969 13.9522C13.7819 13.8671 13.867 13.782 13.867 13.782C13.9521 13.6969 14.0372 13.6119 14.0372 13.5268L14.1222 13.4417L14.2073 13.3566C14.2924 13.1865 14.4625 13.0163 14.5476 12.8462C14.5476 12.7611 14.6327 12.7611 14.6327 12.676V12.591V12.5059C14.6327 12.4208 14.6327 12.4208 14.7178 12.3357C14.8028 12.1656 14.8028 11.9104 14.8879 11.7402V11.6551V11.485C14.8879 11.3999 14.8879 11.3148 14.8879 11.2298V11.0596C14.8879 10.9745 14.8879 10.8895 14.8879 10.8044V10.7193C14.8879 10.4641 14.8028 10.2939 14.7178 10.1238C14.7178 10.0387 14.6327 9.95364 14.6327 9.86857L14.5476 9.69842C14.4625 9.52827 14.3775 9.35812 14.2073 9.18797C14.2073 9.18797 14.2073 9.18797 14.2073 9.1029C14.2073 9.1029 14.2073 9.1029 14.2073 9.01782C14.1222 8.93275 14.0372 8.84767 13.9521 8.7626C13.867 8.67752 13.7819 8.59245 13.6969 8.59245L13.6118 8.50738C13.6118 8.50738 13.6118 8.50738 13.5267 8.50738C13.3566 8.4223 13.1864 8.25215 13.0163 8.16708C12.9312 8.082 12.8461 8.082 12.761 7.99693C12.761 7.99693 12.761 7.99693 12.676 7.99693L12.5909 7.91185C12.4207 7.82678 12.2506 7.82678 11.9954 7.7417H11.8252C11.6551 7.7417 11.57 7.7417 11.4849 7.7417C11.3148 7.7417 11.0595 7.7417 10.8894 7.7417H10.7192C10.6342 7.7417 10.5491 7.7417 10.464 7.82678C10.379 7.82678 10.2939 7.91185 10.2088 7.91185L10.1237 7.99693C9.8685 8.082 9.69835 8.16708 9.5282 8.33723C9.35805 8.4223 9.35805 8.50738 9.27298 8.59245L9.18791 8.67752L9.10283 8.7626C8.93268 8.84767 8.84761 9.01782 8.67746 9.18797C8.67746 9.18797 8.67746 9.27305 8.59238 9.27305H8.50731C8.50731 9.35812 8.42223 9.4432 8.33716 9.52827C8.25209 9.61335 8.25209 9.69842 8.16701 9.78349C8.16701 9.86857 8.08194 9.86857 8.08194 9.95364C8.08194 9.95364 8.08194 9.95364 8.08194 10.0387C7.99686 10.2089 7.91179 10.379 7.91179 10.6342C7.91179 10.7193 7.82671 10.8044 7.82671 10.9745V11.0596C7.82671 11.3148 7.82671 11.5701 7.82671 11.7402V11.9104C7.82671 12.0805 7.91179 12.1656 7.91179 12.2507C7.99686 12.4208 7.99686 12.591 8.08194 12.7611L8.16701 12.9313C8.25209 13.0163 8.25209 13.1014 8.33716 13.1865C8.42223 13.2716 8.42223 13.3566 8.50731 13.4417L8.59238 13.5268C8.76253 13.6969 8.84761 13.8671 9.01776 13.9522L9.10283 14.0372C9.10283 14.0372 9.18791 14.0372 9.18791 14.1223C9.27298 14.2074 9.35806 14.2074 9.35806 14.2924C9.5282 14.3775 9.69835 14.4626 9.8685 14.5477H9.95358C9.95358 14.5477 9.95358 14.5477 10.0387 14.5477C10.2088 14.6327 10.2939 14.6327 10.379 14.6327C10.464 14.6327 10.5491 14.7178 10.7192 14.7178L10.8894 14.888Z" fill="white" />
</svg>
  