<svg width="128" height="38" viewBox="0 0 128 38" fill="none" xmlns="http://www.w3.org/2000/svg">
  <g clip-path="url(#clip0_3428_1824)">
    <path d="M0 5.05679C0 2.264 2.26512 0 5.05929 0H122.941C125.735 0 128 2.26401 128 5.05679V32.8692C128 35.6619 125.735 37.9259 122.941 37.9259H5.05929C2.26512 37.9259 0 35.6619 0 32.8692V5.05679Z" fill="white" />
    <path fill-rule="evenodd" clip-rule="evenodd" d="M0 32.8692V5.05679C0 2.26401 2.26512 0 5.05929 0H122.941C125.735 0 128 2.264 128 5.05679V32.8692C128 35.6619 125.735 37.9259 122.941 37.9259H5.05929C2.26512 37.9259 0 35.6619 0 32.8692ZM0.758893 32.8692V5.05679C0.758893 2.68292 2.68425 0.758519 5.05929 0.758519H122.941C125.316 0.758519 127.241 2.68292 127.241 5.05679V32.8692C127.241 35.2431 125.316 37.1674 122.941 37.1674H5.05929C2.68425 37.1674 0.758893 35.2431 0.758893 32.8692Z" fill="black" fill-opacity="0.1" />
    <path d="M28.9247 19.7353C28.9116 17.5124 29.9192 15.8371 31.954 14.6019C30.816 12.9723 29.0942 12.076 26.8247 11.9033C24.6758 11.7337 22.3246 13.1548 21.4638 13.1548C20.5541 13.1548 18.4736 11.962 16.8367 11.962C13.4584 12.0141 9.86816 14.654 9.86816 20.0253C9.86816 21.6126 10.1584 23.252 10.7388 24.9403C11.5149 27.1632 14.3127 32.6093 17.2312 32.5213C18.7573 32.4855 19.8366 31.4393 21.8225 31.4393C23.7497 31.4393 24.7475 32.5213 26.4497 32.5213C29.3942 32.4789 31.9246 27.5282 32.6616 25.2988C28.7127 23.4378 28.9247 19.8493 28.9247 19.7353ZM25.4975 9.7945C27.1508 7.83244 27.0008 6.04636 26.9519 5.4043C25.491 5.48903 23.8019 6.39836 22.8399 7.5163C21.7801 8.7157 21.1573 10.1987 21.291 11.8707C22.8693 11.9913 24.3105 11.1797 25.4975 9.7945Z" fill="black" />
    <path d="M46.7358 27.4448H45.061L44.1435 24.5501H40.9547L40.0808 27.4448H38.4502L41.6096 17.5898H43.561L46.7358 27.4448ZM43.8671 23.3356L43.0373 20.7623C42.9496 20.4993 42.7851 19.8803 42.5425 18.9058H42.513C42.4164 19.3249 42.2608 19.944 42.0469 20.7623L41.232 23.3356H43.8671Z" fill="black" />
    <path d="M54.86 23.805C54.86 25.0136 54.5347 25.9688 53.8843 26.6701C53.3017 27.2943 52.5782 27.6062 51.7146 27.6062C50.7824 27.6062 50.1128 27.27 49.705 26.5975H49.6755V30.3409H48.1032V22.6786C48.1032 21.9188 48.0833 21.139 48.0449 20.3393H49.4277L49.5155 21.4657H49.545C50.0693 20.617 50.8651 20.1934 51.9329 20.1934C52.7677 20.1934 53.4646 20.5245 54.0222 21.1872C54.5813 21.8507 54.86 22.723 54.86 23.805ZM53.2582 23.8628C53.2582 23.1711 53.1033 22.6009 52.7921 22.1521C52.4521 21.6841 51.9956 21.4501 51.4234 21.4501C51.0354 21.4501 50.6829 21.5804 50.368 21.8374C50.0523 22.0966 49.8458 22.435 49.7492 22.8541C49.7006 23.0497 49.6762 23.2096 49.6762 23.3355V24.5203C49.6762 25.0373 49.8341 25.4734 50.1497 25.8296C50.4654 26.1858 50.8754 26.3635 51.3798 26.3635C51.9721 26.3635 52.4329 26.134 52.7626 25.6763C53.0929 25.2179 53.2582 24.6136 53.2582 23.8628Z" fill="black" />
    <path d="M62.9998 23.805C62.9998 25.0136 62.6746 25.9688 62.0234 26.6701C61.4415 27.2943 60.7181 27.6062 59.8545 27.6062C58.9223 27.6062 58.2527 27.27 57.8456 26.5975H57.8161V30.3409H56.2438V22.6786C56.2438 21.9188 56.2239 21.139 56.1855 20.3393H57.5683L57.656 21.4657H57.6855C58.2092 20.617 59.0049 20.1934 60.0735 20.1934C60.9076 20.1934 61.6045 20.5245 62.1635 21.1872C62.7204 21.8507 62.9998 22.723 62.9998 23.805ZM61.398 23.8628C61.398 23.1711 61.2424 22.6009 60.9312 22.1521C60.5912 21.6841 60.1362 21.4501 59.5631 21.4501C59.1745 21.4501 58.8227 21.5804 58.5071 21.8374C58.1915 22.0966 57.9857 22.435 57.8891 22.8541C57.8412 23.0497 57.8161 23.2096 57.8161 23.3355V24.5203C57.8161 25.0373 57.9739 25.4734 58.2881 25.8296C58.6037 26.1851 59.0138 26.3635 59.5197 26.3635C60.1118 26.3635 60.5728 26.134 60.9025 25.6763C61.2328 25.2179 61.398 24.6136 61.398 23.8628Z" fill="black" />
    <path d="M72.1013 24.682C72.1013 25.5203 71.8115 26.2023 71.2296 26.7289C70.5902 27.3043 69.7 27.5916 68.5562 27.5916C67.5002 27.5916 66.6535 27.3872 66.0127 26.9776L66.377 25.6617C67.0672 26.0809 67.8246 26.2912 68.6499 26.2912C69.2421 26.2912 69.703 26.1565 70.0342 25.8883C70.3638 25.6203 70.5283 25.2604 70.5283 24.8116C70.5283 24.4118 70.3926 24.0748 70.1205 23.8015C69.8498 23.5283 69.3977 23.2743 68.7664 23.0395C67.0481 22.396 66.1896 21.4534 66.1896 20.2136C66.1896 19.4036 66.4906 18.7393 67.0931 18.2223C67.6934 17.7048 68.4943 17.4463 69.4958 17.4463C70.3889 17.4463 71.1308 17.6025 71.723 17.9143L71.3299 19.2013C70.7768 18.8992 70.1514 18.7482 69.4515 18.7482C68.8984 18.7482 68.4662 18.8851 68.1566 19.1577C67.8947 19.4013 67.7635 19.6982 67.7635 20.05C67.7635 20.4395 67.9132 20.7617 68.214 21.0149C68.4759 21.2489 68.9515 21.5022 69.6418 21.7754C70.4862 22.1169 71.1064 22.5159 71.5054 22.9736C71.9029 23.4298 72.1013 24.0007 72.1013 24.682Z" fill="black" />
    <path d="M77.299 21.5238H75.5659V24.974C75.5659 25.8516 75.8713 26.2899 76.4834 26.2899C76.7644 26.2899 76.9974 26.2654 77.1818 26.2166L77.2253 27.4155C76.9155 27.5318 76.5077 27.5903 76.0026 27.5903C75.3816 27.5903 74.8964 27.4 74.546 27.0201C74.1972 26.6395 74.0217 26.0011 74.0217 25.1043V21.5224H72.9893V20.3375H74.0217V19.0364L75.5659 18.5684V20.3375H77.299V21.5238Z" fill="black" />
    <path d="M85.119 23.8341C85.119 24.9264 84.8078 25.8231 84.1869 26.5245C83.5357 27.2465 82.6714 27.6064 81.5939 27.6064C80.5555 27.6064 79.7288 27.2605 79.1122 26.5688C78.4957 25.8773 78.1875 25.0041 78.1875 23.9518C78.1875 22.8507 78.5046 21.9487 79.1411 21.2474C79.776 20.5453 80.633 20.1943 81.7104 20.1943C82.7488 20.1943 83.5844 20.5402 84.2149 21.2326C84.8182 21.9042 85.119 22.7714 85.119 23.8341ZM83.4877 23.8852C83.4877 23.2298 83.3484 22.6678 83.0659 22.199C82.7362 21.6317 82.265 21.3489 81.6544 21.3489C81.0224 21.3489 80.5422 21.6325 80.2126 22.199C79.9301 22.6685 79.7907 23.2394 79.7907 23.9148C79.7907 24.5701 79.9301 25.1322 80.2126 25.6003C80.5526 26.1675 81.0275 26.4504 81.6404 26.4504C82.2406 26.4504 82.7119 26.1616 83.0519 25.5854C83.3417 25.1078 83.4877 24.5398 83.4877 23.8852Z" fill="black" />
    <path d="M90.2296 21.7277C90.074 21.6989 89.9081 21.6841 89.734 21.6841C89.1809 21.6841 88.7531 21.8937 88.4523 22.3135C88.1905 22.6839 88.0592 23.1519 88.0592 23.7169V27.4455H86.4876L86.5024 22.5772C86.5024 21.7582 86.4824 21.0125 86.4434 20.34H87.8129L87.8704 21.6997H87.9139C88.0799 21.2323 88.3416 20.8562 88.7 20.574C89.0504 20.32 89.4287 20.1934 89.8365 20.1934C89.9818 20.1934 90.113 20.2038 90.2296 20.2223V21.7277Z" fill="black" />
    <path d="M97.2611 23.5559C97.2611 23.8387 97.2421 24.0771 97.2033 24.2719H92.4864C92.5048 24.9739 92.7328 25.5108 93.1708 25.8811C93.5683 26.2121 94.0824 26.378 94.7136 26.378C95.4122 26.378 96.0494 26.2661 96.6221 26.0418L96.8686 27.1378C96.1992 27.431 95.4084 27.5769 94.496 27.5769C93.3986 27.5769 92.5374 27.2526 91.9104 26.6046C91.285 25.9567 90.9717 25.0865 90.9717 23.9949C90.9717 22.9234 91.263 22.031 91.8463 21.3194C92.457 20.5596 93.2822 20.1797 94.3205 20.1797C95.3402 20.1797 96.1129 20.5596 96.6372 21.3194C97.0525 21.923 97.2611 22.6694 97.2611 23.5559ZM95.7611 23.1463C95.7716 22.6783 95.6692 22.274 95.4558 21.9325C95.1837 21.4934 94.766 21.2742 94.2032 21.2742C93.6893 21.2742 93.2711 21.4882 92.9518 21.9177C92.69 22.2592 92.5344 22.6687 92.4864 23.1456H95.7611V23.1463Z" fill="black" />
    <path d="M43.5478 10.9633C43.5478 12.0285 43.2297 12.8304 42.5943 13.3689C42.0056 13.8658 41.1693 14.1147 40.0858 14.1147C39.5486 14.1147 39.089 14.0911 38.7041 14.0441V8.22367C39.2061 8.14222 39.747 8.10059 40.331 8.10059C41.363 8.10059 42.1409 8.32594 42.6655 8.77666C43.2531 9.28621 43.5478 10.0148 43.5478 10.9633ZM42.5519 10.9896C42.5519 10.2989 42.3698 9.76948 42.0056 9.40024C41.6416 9.03189 41.1097 8.84725 40.4094 8.84725C40.112 8.84725 39.8588 8.86716 39.6487 8.9088V13.3337C39.765 13.3517 39.9777 13.3598 40.2868 13.3598C41.0097 13.3598 41.5676 13.1581 41.9606 12.7543C42.3536 12.3507 42.5519 11.7625 42.5519 10.9896Z" fill="black" />
    <path d="M48.8284 11.8938C48.8284 12.55 48.6418 13.0876 48.2686 13.5094C47.8775 13.9428 47.3593 14.1592 46.7121 14.1592C46.0884 14.1592 45.5917 13.9519 45.2213 13.5356C44.8517 13.1201 44.667 12.5962 44.667 11.9644C44.667 11.3038 44.8571 10.7616 45.2393 10.3407C45.6215 9.91985 46.1352 9.70898 46.7824 9.70898C47.4061 9.70898 47.9072 9.91625 48.2866 10.3317C48.6472 10.7354 48.8284 11.2566 48.8284 11.8938ZM47.8486 11.9246C47.8486 11.5309 47.7639 11.1933 47.5953 10.9118C47.3971 10.5715 47.1149 10.4014 46.7481 10.4014C46.3686 10.4014 46.0802 10.5715 45.882 10.9118C45.7125 11.1933 45.6287 11.5363 45.6287 11.9418C45.6287 12.3354 45.7134 12.6731 45.882 12.9546C46.0866 13.2949 46.3714 13.465 46.7391 13.465C47.0997 13.465 47.3827 13.2921 47.5863 12.9455C47.7612 12.6586 47.8486 12.3183 47.8486 11.9246Z" fill="black" />
    <path d="M55.909 9.7959L54.5795 14.0624H53.7142L53.1635 12.2097C53.0238 11.7472 52.9103 11.2874 52.8219 10.8313H52.8048C52.7227 11.3001 52.6092 11.7589 52.4632 12.2097L51.8782 14.0624H51.0031L49.7529 9.7959H50.7236L51.2041 11.8242C51.3203 12.3038 51.4159 12.7609 51.4925 13.1935H51.5096C51.5799 12.8369 51.6962 12.3825 51.8602 11.8332L52.4632 9.79685H53.2329L53.8106 11.7898C53.9504 12.2758 54.064 12.7437 54.1514 13.1944H54.1775C54.2415 12.7554 54.338 12.2875 54.4659 11.7898L54.9815 9.79685H55.909V9.7959Z" fill="black" />
    <path d="M60.8063 14.0621H59.8617V11.6185C59.8617 10.8655 59.5769 10.4889 59.0054 10.4889C58.7252 10.4889 58.4989 10.5922 58.3232 10.7994C58.1492 11.0066 58.0609 11.2511 58.0609 11.5307V14.0613H57.1163V11.0148C57.1163 10.6401 57.1046 10.2338 57.082 9.79385H57.9121L57.9563 10.4609H57.9825C58.0924 10.2537 58.2564 10.0826 58.4718 9.94594C58.7278 9.78665 59.0144 9.70605 59.3281 9.70605C59.7247 9.70605 60.0546 9.83462 60.3168 10.0925C60.6432 10.4084 60.8063 10.88 60.8063 11.5063V14.0621Z" fill="black" />
    <path d="M63.4104 14.0619H62.4668V7.83789H63.4104V14.0619Z" fill="black" />
    <path d="M68.972 11.8938C68.972 12.55 68.7854 13.0876 68.4122 13.5094C68.0211 13.9428 67.5019 14.1592 66.8556 14.1592C66.231 14.1592 65.7343 13.9519 65.3648 13.5356C64.9952 13.1201 64.8105 12.5962 64.8105 11.9644C64.8105 11.3038 65.0007 10.7616 65.3828 10.3407C65.765 9.91985 66.2788 9.70898 66.925 9.70898C67.5497 9.70898 68.0499 9.91625 68.4302 10.3317C68.7908 10.7354 68.972 11.2566 68.972 11.8938ZM67.9913 11.9246C67.9913 11.5309 67.9065 11.1933 67.738 10.9118C67.5406 10.5715 67.2576 10.4014 66.8916 10.4014C66.5113 10.4014 66.2229 10.5715 66.0255 10.9118C65.8561 11.1933 65.7723 11.5363 65.7723 11.9418C65.7723 12.3354 65.8569 12.6731 66.0255 12.9546C66.2301 13.2949 66.5149 13.465 66.8826 13.465C67.2432 13.465 67.5253 13.2921 67.729 12.9455C67.9047 12.6586 67.9913 12.3183 67.9913 11.9246Z" fill="black" />
    <path d="M73.5437 14.0623H72.6956L72.6253 13.5709H72.5992C72.3089 13.9628 71.8953 14.1592 71.358 14.1592C70.957 14.1592 70.6325 14.0298 70.3882 13.7727C70.1665 13.5392 70.0557 13.2487 70.0557 12.9039C70.0557 12.3826 70.2719 11.9852 70.7073 11.7101C71.1418 11.435 71.7528 11.3001 72.5397 11.3064V11.2268C72.5397 10.6647 72.2459 10.3842 71.6573 10.3842C71.2382 10.3842 70.8686 10.4901 70.5496 10.7001L70.3576 10.0773C70.7524 9.83215 71.24 9.70898 71.815 9.70898C72.9254 9.70898 73.4825 10.2973 73.4825 11.4739V13.045C73.4825 13.4713 73.5032 13.8108 73.5437 14.0623ZM72.5631 12.5962V11.9382C71.5212 11.9201 71.0002 12.207 71.0002 12.798C71.0002 13.0206 71.0597 13.1872 71.1814 13.2985C71.303 13.4098 71.4581 13.465 71.6429 13.465C71.8501 13.465 72.0439 13.3989 72.2206 13.2677C72.3982 13.1356 72.5072 12.9681 72.5478 12.7627C72.5577 12.7165 72.5631 12.6604 72.5631 12.5962Z" fill="black" />
    <path d="M78.9105 14.062H78.0722L78.0281 13.3769H78.0019C77.7342 13.8982 77.2782 14.1588 76.6373 14.1588C76.1254 14.1588 75.699 13.957 75.361 13.5533C75.0231 13.1497 74.8545 12.6257 74.8545 11.9822C74.8545 11.2916 75.0375 10.7323 75.4052 10.3051C75.7612 9.90684 76.1975 9.70773 76.7167 9.70773C77.2872 9.70773 77.6864 9.90049 77.9136 10.287H77.9316V7.83789H78.8771V12.9126C78.8771 13.328 78.8879 13.7108 78.9105 14.062ZM77.9316 12.2627V11.5513C77.9316 11.4282 77.9226 11.3287 77.9055 11.2526C77.8523 11.0246 77.7378 10.8327 77.5638 10.678C77.3881 10.5232 77.1763 10.4454 76.932 10.4454C76.5797 10.4454 76.3038 10.5856 76.101 10.8671C75.9 11.1486 75.7982 11.5079 75.7982 11.9469C75.7982 12.3686 75.8946 12.7107 76.0884 12.9741C76.293 13.2547 76.5688 13.3949 76.914 13.3949C77.2241 13.3949 77.472 13.2782 77.6604 13.0438C77.8424 12.8274 77.9316 12.5668 77.9316 12.2627Z" fill="black" />
    <path d="M86.9895 11.8938C86.9895 12.55 86.803 13.0876 86.4298 13.5094C86.0386 13.9428 85.5212 14.1592 84.8732 14.1592C84.2503 14.1592 83.7538 13.9519 83.3824 13.5356C83.0128 13.1201 82.8281 12.5962 82.8281 11.9644C82.8281 11.3038 83.0182 10.7616 83.4004 10.3407C83.7826 9.91985 84.2963 9.70898 84.9444 9.70898C85.5672 9.70898 86.0693 9.91625 86.4478 10.3317C86.8084 10.7354 86.9895 11.2566 86.9895 11.8938ZM86.0107 11.9246C86.0107 11.5309 85.9259 11.1933 85.7574 10.9118C85.5582 10.5715 85.277 10.4014 84.9092 10.4014C84.5307 10.4014 84.2423 10.5715 84.0431 10.9118C83.8736 11.1933 83.7898 11.5363 83.7898 11.9418C83.7898 12.3354 83.8745 12.6731 84.0431 12.9546C84.2477 13.2949 84.5325 13.465 84.9002 13.465C85.2608 13.465 85.5447 13.2921 85.7484 12.9455C85.9223 12.6586 86.0107 12.3183 86.0107 11.9246Z" fill="black" />
    <path d="M92.0681 14.0621H91.1244V11.6185C91.1244 10.8655 90.8396 10.4889 90.2673 10.4889C89.9869 10.4889 89.7607 10.5922 89.5859 10.7994C89.411 11.0066 89.3236 11.2511 89.3236 11.5307V14.0613H88.3781V11.0148C88.3781 10.6401 88.3673 10.2338 88.3447 9.79385H89.174L89.2181 10.4609H89.2442C89.3551 10.2537 89.5192 10.0826 89.7337 9.94594C89.9905 9.78665 90.2763 9.70605 90.5908 9.70605C90.9866 9.70605 91.3164 9.83462 91.5787 10.0925C91.9059 10.4084 92.0681 10.88 92.0681 11.5063V14.0621Z" fill="black" />
    <path d="M98.4254 10.5064H97.3853V12.579C97.3853 13.1058 97.5702 13.3691 97.9361 13.3691C98.1049 13.3691 98.2462 13.3547 98.3571 13.3248L98.3808 14.0442C98.195 14.1149 97.9494 14.1502 97.647 14.1502C97.2743 14.1502 96.9842 14.0361 96.7737 13.8081C96.5632 13.5799 96.4589 13.1962 96.4589 12.6578V10.5064H95.8379V9.79597H96.4589V9.01396L97.3843 8.7334V9.79502H98.4244V10.5064H98.4254Z" fill="black" />
    <path d="M103.426 14.0619H102.48V11.6365C102.48 10.8717 102.196 10.4888 101.625 10.4888C101.187 10.4888 100.887 10.7105 100.723 11.154C100.696 11.2472 100.68 11.3613 100.68 11.4952V14.0611H99.7354V7.83789H100.68V10.4092H100.698C100.994 9.94126 101.421 9.70773 101.974 9.70773C102.365 9.70773 102.689 9.8363 102.946 10.0942C103.265 10.4155 103.426 10.8934 103.426 11.5251V14.0619Z" fill="black" />
    <path d="M108.585 11.7266C108.585 11.8968 108.573 12.0398 108.55 12.1565H105.717C105.729 12.5782 105.865 12.8995 106.127 13.1222C106.367 13.3213 106.676 13.4208 107.055 13.4208C107.474 13.4208 107.856 13.3539 108.2 13.2191L108.348 13.8779C107.945 14.0535 107.471 14.1413 106.922 14.1413C106.264 14.1413 105.746 13.9467 105.371 13.5575C104.994 13.1683 104.808 12.6461 104.808 11.9908C104.808 11.3474 104.981 10.8116 105.332 10.3844C105.698 9.92822 106.193 9.7002 106.818 9.7002C107.428 9.7002 107.893 9.92822 108.207 10.3844C108.46 10.7464 108.585 11.1944 108.585 11.7266ZM107.683 11.4813C107.691 11.1999 107.628 10.9572 107.5 10.7527C107.336 10.4893 107.087 10.3573 106.749 10.3573C106.441 10.3573 106.189 10.4857 105.998 10.7437C105.84 10.9492 105.748 11.1944 105.717 11.4813H107.683Z" fill="black" />
  </g>
  <defs>
    <clipPath id="clip0_3428_1824">
      <rect width="128" height="37.9259" fill="white" />
    </clipPath>
  </defs>
</svg>
  