<svg width="17" height="13" viewBox="0 0 17 13" fill="none" xmlns="http://www.w3.org/2000/svg">
<g clip-path="url(#clip0)">
<path d="M16.9536 6.26884C17 6.17595 17 6.08305 17 6.0366C17 5.94371 17 5.89726 16.9536 5.80436C16.9536 5.80436 16.9536 5.80436 16.9536 5.75792C16.9071 5.71147 16.9071 5.61857 16.8607 5.57212L12.4016 0.230593C12.1694 -0.0480955 11.7049 -0.0945436 11.4262 0.137697C11.1475 0.369937 11.1011 0.834418 11.3333 1.11311L14.8169 5.33988H0.696721C0.325137 5.33988 0 5.66502 0 6.0366C0 6.40819 0.325137 6.73333 0.696721 6.73333H14.8169L11.1475 11.1923C10.9153 11.471 10.9618 11.9355 11.2404 12.1678C11.3798 12.2606 11.5191 12.3071 11.7049 12.3071C11.8907 12.3071 12.123 12.2142 12.2623 12.0749L16.9071 6.50108C16.8607 6.40819 16.9071 6.36174 16.9536 6.26884Z" fill="current"/>
</g>
<defs>
<clipPath id="clip0">
<rect width="17" height="12.3087" fill="white"/>
</clipPath>
</defs>
</svg>
