<svg width="16" height="16" viewBox="0 0 16 16" fill="none" xmlns="http://www.w3.org/2000/svg">
  <g clip-path="url(#clip0_2732_1385)">
    <path d="M15.2561 7.25642L2.54012 7.25642L6.0313 3.76513C6.32186 3.47457 6.32186 3.00355 6.0313 2.71299C5.74068 2.42249 5.26967 2.42249 4.97917 2.71299L0.217964 7.47431C-0.0726548 7.76487 -0.0726548 8.23589 0.217964 8.52645L4.97929 13.2878C5.12445 13.4329 5.31496 13.5057 5.50535 13.5057C5.69575 13.5057 5.88608 13.4329 6.03142 13.2878C6.32198 12.9972 6.32198 12.5262 6.03142 12.2356L2.54012 8.74434L15.2561 8.74434C15.6669 8.74434 16 8.41116 16 8.00038C16 7.58954 15.6669 7.25642 15.2561 7.25642Z" fill="#13273F" />
  </g>
  <defs>
    <clipPath id="clip0_2732_1385">
      <rect width="16" height="16" fill="white" />
    </clipPath>
  </defs>
</svg>
  