<svg width="15" height="18" viewBox="0 0 15 18" fill="none" xmlns="http://www.w3.org/2000/svg">
  <g clip-path="url(#clip0_2720_1361)">
    <path d="M14.2682 12.1084C13.1534 11.1922 12.5149 9.8566 12.5149 8.44045V6.44373C12.5149 3.92351 10.589 1.83954 8.09707 1.49054V0.718697C8.09707 0.322709 7.76573 0.00390625 7.36191 0.00390625C6.95809 0.00390625 6.62676 0.319354 6.62676 0.715341V1.48718C4.13137 1.83954 2.20892 3.92351 2.20892 6.44373V8.44045C2.20892 9.8566 1.5704 11.1956 0.452138 12.1151C0.165669 12.3533 0 12.699 0 13.0648C0 13.7561 0.57639 14.3165 1.28739 14.3165H13.4364C14.1474 14.3165 14.7238 13.7561 14.7238 13.0648C14.7273 12.699 14.5616 12.3533 14.2682 12.1084Z" fill="#6C6C8A" />
    <path d="M7.61165 17.6936C8.94391 17.6936 10.0622 16.7708 10.3176 15.5459H4.90918C5.16459 16.7708 6.2794 17.6936 7.61165 17.6936Z" fill="#6C6C8A" />
  </g>
  <defs>
    <clipPath id="clip0_2720_1361">
      <rect width="14.7273" height="18" fill="white" />
    </clipPath>
  </defs>
</svg>
  