<svg width="50" height="50" viewBox="0 0 50 50" fill="none" xmlns="http://www.w3.org/2000/svg">
<path d="M25 50C38.8071 50 50 38.8071 50 25C50 11.1929 38.8071 0 25 0C11.1929 0 0 11.1929 0 25C0 38.8071 11.1929 50 25 50Z" fill="#38B6FF" fill-opacity="0.17"/>
<path d="M29.7917 31.8228H20.2084C19.8959 31.8228 19.6354 31.6666 19.5313 31.4062C19.375 31.1457 19.4271 30.8332 19.6354 30.5728L24.0625 24.8957L19.6875 19.4791C19.4792 19.2707 19.4792 18.9062 19.5834 18.6457C19.6875 18.3853 20 18.177 20.3125 18.177H29.7917C30.2084 18.177 30.5729 18.5416 30.5729 18.9582V21.7187C30.5729 22.1353 30.2084 22.4999 29.7917 22.4999C29.375 22.4999 29.0104 22.1353 29.0104 21.7187V19.7395H21.875L25.625 24.3749C25.8334 24.6353 25.8334 25.052 25.625 25.3645L21.7709 30.2603H29.0104V28.4374C29.0104 28.0207 29.375 27.6562 29.7917 27.6562C30.2084 27.6562 30.5729 28.0207 30.5729 28.4374V31.0416C30.5729 31.4582 30.2604 31.8228 29.7917 31.8228Z" fill="#38B6FF"/>
<path d="M25 40C16.7188 40 10 33.2813 10 25C10 16.7188 16.7188 10 25 10C33.2813 10 40 16.7188 40 25C40 33.2813 33.2813 40 25 40ZM25 11.5625C17.6042 11.5625 11.5625 17.6042 11.5625 25C11.5625 32.3958 17.6042 38.4375 25 38.4375C32.3958 38.4375 38.4375 32.3958 38.4375 25C38.4375 17.6042 32.3958 11.5625 25 11.5625Z" fill="#38B6FF"/>
</svg>
