<svg width="18" height="18" viewBox="0 0 18 18" fill="none" xmlns="http://www.w3.org/2000/svg">
  <path d="M17.5526 7.32571L15.9475 7.13395C15.7842 6.51963 15.5427 5.94082 15.2338 5.40462L16.2316 4.13691C16.3843 3.94161 16.3665 3.63977 16.189 3.46577L14.5342 1.81101C14.3602 1.63701 14.0584 1.6157 13.8631 1.7684L12.5918 2.76978C12.0556 2.46084 11.4768 2.21937 10.866 2.05603L10.6743 0.450977C10.6459 0.202407 10.4186 0 10.1701 0H7.82995C7.58138 0 7.35411 0.202407 7.32571 0.447426L7.13395 2.05248C6.52318 2.21582 5.94082 2.45729 5.40817 2.76623L4.13691 1.7684C3.94161 1.6157 3.63977 1.63346 3.46577 1.80746L1.80746 3.46577C1.63346 3.63977 1.6157 3.94161 1.7684 4.13691L2.76623 5.40817C2.45729 5.94437 2.21582 6.52318 2.05248 7.1375L0.447426 7.32926C0.202407 7.35766 0 7.58138 0 7.82995V10.1701C0 10.4186 0.202407 10.6423 0.447426 10.6743L2.05248 10.866C2.21582 11.4768 2.45729 12.0556 2.76623 12.5918L1.7684 13.8631C1.6157 14.0584 1.63346 14.3602 1.81101 14.5342L3.46577 16.1925C3.63977 16.3665 3.94161 16.3878 4.13691 16.2352L5.40817 15.2338C5.94437 15.5427 6.52318 15.7842 7.13395 15.9475L7.32571 17.5526C7.35411 17.7976 7.58138 18 7.82995 18H10.1701C10.4186 18 10.6459 17.8011 10.6743 17.5526L10.866 15.9475C11.4804 15.7842 12.0592 15.5427 12.5918 15.2338L13.8631 16.2316C14.0584 16.3843 14.3602 16.3665 14.5342 16.1925L16.189 14.5342C16.363 14.3602 16.3843 14.0584 16.2281 13.8595L15.2338 12.5954C15.5427 12.0592 15.7842 11.4804 15.9475 10.8696L17.5526 10.6778C17.7976 10.6494 18 10.4222 18 10.1736V7.8335C18 7.58138 17.8011 7.35411 17.5526 7.32571ZM8.98402 11.7716C7.44289 11.7716 6.19649 10.5252 6.19649 8.98402C6.19649 7.44289 7.44289 6.19649 8.98402 6.19649C10.5252 6.19649 11.7716 7.44289 11.7716 8.98402C11.7716 10.5252 10.5252 11.7716 8.98402 11.7716Z" fill="#6C6C8A" />
</svg>
  