<svg width="12" height="12" viewBox="0 0 12 12" fill="none" xmlns="http://www.w3.org/2000/svg">
  <path fill-rule="evenodd" clip-rule="evenodd" d="M10.4342 2.56601H9.43429V1.56613C9.43429 0.724211 8.75015 0.0400391 7.93446 0.0400391H1.56711C0.725187 0.0400391 0.0410156 0.724171 0.0410156 1.56613V7.93348C0.0410156 8.74914 0.725148 9.43331 1.56711 9.43331H2.56698V10.4332C2.56698 11.2751 3.22469 11.933 4.06681 11.933H10.4342C11.2761 11.933 11.934 11.2753 11.934 10.4332V4.06583C11.934 3.22391 11.2763 2.56601 10.4342 2.56601ZM8.19767 2.56601H4.06685C3.22493 2.56601 2.56702 3.22371 2.56702 4.06583V8.19665H1.56715C1.48818 8.19665 1.40921 8.17038 1.38294 8.11768C1.33024 8.06498 1.30397 8.01244 1.30397 7.93347V1.56612C1.30397 1.48715 1.33024 1.40818 1.38294 1.38191C1.40921 1.32921 1.48818 1.30294 1.56715 1.30294H7.9345C8.01347 1.30294 8.06601 1.32921 8.11871 1.38191C8.17141 1.40818 8.19768 1.48715 8.19768 1.56612L8.19767 2.56601Z" fill="#13273F" />
</svg>
  