<svg width="19" height="18" viewBox="0 0 19 18" fill="none" xmlns="http://www.w3.org/2000/svg">
  <g clip-path="url(#clip0_2737_912)">
    <path d="M10.4307 2.62793L1.86527 11.1933C1.83922 11.2194 1.81299 11.2716 1.78694 11.2977C1.78694 11.2977 1.78694 11.3237 1.76089 11.3237C1.73485 11.3498 1.73485 11.4021 1.70862 11.4281V11.4542L0.0373203 17.1731C-0.0410077 17.4081 0.0373199 17.6431 0.193976 17.826C0.324583 17.9566 0.481239 18.0089 0.663935 18.0089C0.716214 18.0089 0.794542 18.0089 0.846821 17.9828L6.56578 16.3115H6.59183C6.61788 16.3115 6.67016 16.2855 6.69621 16.2592C6.69621 16.2592 6.72226 16.2592 6.72226 16.2332C6.77454 16.2071 6.80059 16.1809 6.82663 16.1549L15.392 7.58948L10.4307 2.62793ZM5.15563 15.3977L1.63015 16.4161L2.6486 12.8906L5.15563 15.3977Z" fill="#6C6C8A" />
    <path d="M12.2065 0.852315L11.3447 1.71408L16.3325 6.70185L17.1943 5.84009C18.4216 4.61273 18.3433 2.36693 17.0114 1.03511C15.6795 -0.296794 13.4336 -0.375135 12.2064 0.852227L12.2065 0.852315Z" fill="#6C6C8A" />
  </g>
  <defs>
    <clipPath id="clip0_2737_912">
      <rect width="18.0466" height="18" fill="white" />
    </clipPath>
  </defs>
</svg>
  