<svg width="128" height="38" viewBox="0 0 128 38" fill="none" xmlns="http://www.w3.org/2000/svg">
  <g clip-path="url(#clip0_3428_1809)">
    <path d="M0 5.05679C0 2.264 2.26512 0 5.05929 0H122.941C125.735 0 128 2.26401 128 5.05679V32.8692C128 35.6619 125.735 37.9259 122.941 37.9259H5.05929C2.26512 37.9259 0 35.6619 0 32.8692V5.05679Z" fill="white" />
    <path fill-rule="evenodd" clip-rule="evenodd" d="M0 32.8692V5.05679C0 2.26401 2.26512 0 5.05929 0H122.941C125.735 0 128 2.264 128 5.05679V32.8692C128 35.6619 125.735 37.9259 122.941 37.9259H5.05929C2.26512 37.9259 0 35.6619 0 32.8692ZM0.758893 32.8692V5.05679C0.758893 2.68292 2.68425 0.758519 5.05929 0.758519H122.941C125.316 0.758519 127.241 2.68292 127.241 5.05679V32.8692C127.241 35.2431 125.316 37.1674 122.941 37.1674H5.05929C2.68425 37.1674 0.758893 35.2431 0.758893 32.8692Z" fill="black" fill-opacity="0.1" />
    <path d="M64.8561 20.6036C62.5782 20.6036 60.6962 22.3816 60.6962 24.8195C60.6962 27.2374 62.5585 29.0353 64.8563 29.0353C67.1539 29.0353 69.016 27.2573 69.016 24.8195C69.016 22.3816 67.1539 20.6036 64.8561 20.6036ZM64.8561 27.3577C63.6078 27.3577 62.5191 26.2984 62.5191 24.8006C62.5191 23.2821 63.6087 22.2436 64.8561 22.2436C66.1034 22.2436 67.1932 23.2821 67.1932 24.8006C67.1932 26.2984 66.1034 27.3577 64.8561 27.3577ZM55.8034 20.6036C53.5057 20.6036 51.6433 22.3816 51.6433 24.8195C51.6433 27.2374 53.5057 29.0353 55.8034 29.0353C58.1011 29.0353 59.9633 27.2573 59.9633 24.8195C59.9633 22.3816 58.1011 20.6036 55.8032 20.6036H55.8034ZM55.8034 27.3577C54.555 27.3577 53.4663 26.2984 53.4663 24.8006C53.4663 23.2821 54.556 22.2436 55.8034 22.2436C57.0517 22.2436 58.1405 23.2821 58.1405 24.8006C58.1405 26.2984 57.0703 27.3577 55.8034 27.3577ZM45.0471 21.9025V23.6805H49.2462C49.1269 24.6795 48.7912 25.4187 48.2955 25.9186C47.6818 26.5377 46.7309 27.2175 45.0471 27.2175C42.4517 27.2175 40.4517 25.0997 40.4517 22.482C40.4517 19.8643 42.4527 17.7065 45.0471 17.7065C46.453 17.7065 47.464 18.2662 48.2166 18.9857L49.464 17.7264C48.4137 16.7078 47.0078 15.9287 45.0471 15.9287C41.5008 15.9287 38.5293 18.8654 38.5293 22.4422C38.5293 26.0193 41.5008 28.9559 45.0471 28.9559C46.9684 28.9559 48.3951 28.3168 49.5437 27.1173C50.7124 25.9385 51.069 24.2797 51.069 22.9412C51.069 22.5218 51.0298 22.142 50.9697 21.8222L45.0471 21.9025ZM89.0627 23.281C88.7256 22.3418 87.6566 20.6036 85.5164 20.6036C83.3765 20.6036 81.6138 22.3022 81.6138 24.8195C81.6138 27.1768 83.3765 29.0353 85.7147 29.0353C87.6162 29.0353 88.7059 27.8565 89.1612 27.1768L87.7553 26.2179C87.2794 26.9176 86.6458 27.3766 85.7147 27.3766C84.7835 27.3766 84.1302 26.9571 83.7136 26.0976L89.2402 23.7601L89.0627 23.281ZM83.4366 24.7002C83.3974 23.0813 84.6851 22.2424 85.5954 22.2424C86.3285 22.2424 86.9228 22.6022 87.1403 23.1418L83.4366 24.7002ZM78.9399 28.7559H80.7627V16.4076H78.9399V28.7559ZM75.9692 21.5428H75.91C75.4943 21.0429 74.7219 20.6036 73.7306 20.6036C71.6506 20.6036 69.7688 22.4621 69.7688 24.8195C69.7688 27.1768 71.6704 29.0156 73.7306 29.0156C74.7208 29.0156 75.4934 28.5761 75.91 28.0563H75.9692V28.6557C75.9692 30.2747 75.1168 31.1332 73.7504 31.1332C72.6409 31.1332 71.9474 30.3143 71.6704 29.6346L70.0861 30.3143C70.5411 31.4334 71.7501 32.8119 73.7504 32.8119C75.8895 32.8119 77.6925 31.5329 77.6925 28.4361V20.8631H75.9692V21.5428ZM73.8893 27.3577C72.6409 27.3577 71.5916 26.2984 71.5916 24.8205C71.5916 23.3427 72.6419 22.2632 73.8893 22.2632C75.118 22.2632 76.1081 23.3427 76.1081 24.8205C76.1072 26.2785 75.1168 27.3577 73.8893 27.3577ZM97.5604 16.4078H93.2029V28.7559H95.0259V24.0799H97.5604C99.5818 24.0799 101.562 22.601 101.562 20.2439C101.562 17.8865 99.5818 16.4076 97.5604 16.4076V16.4078ZM97.6201 22.3627H95.044V18.1259H97.6201C98.9664 18.1259 99.7591 19.2649 99.7591 20.2437C99.7401 21.2028 98.9674 22.3627 97.6201 22.3627ZM108.833 20.5836C107.525 20.5836 106.158 21.1632 105.603 22.482L107.209 23.1618C107.565 22.482 108.199 22.2623 108.873 22.2623C109.824 22.2623 110.775 22.8417 110.794 23.8603V23.9807C110.457 23.7809 109.765 23.5006 108.893 23.5006C107.15 23.5006 105.385 24.4797 105.385 26.2785C105.385 27.937 106.812 28.9957 108.397 28.9957C109.626 28.9957 110.299 28.4361 110.714 27.7772H110.774V28.7363H112.536V24.0003C112.516 21.8229 110.912 20.5835 108.833 20.5835V20.5836ZM108.615 27.3378C108.02 27.3378 107.188 27.0377 107.188 26.2993C107.188 25.3401 108.218 24.9805 109.109 24.9805C109.901 24.9805 110.278 25.1604 110.774 25.3999C110.634 26.5389 109.664 27.3378 108.615 27.3378ZM118.896 20.8641L116.815 26.1989H116.756L114.598 20.8639H112.637L115.885 28.3366L114.042 32.5128H115.944L120.915 20.8639H118.895L118.896 20.8641ZM102.573 28.7559H104.396V16.4076H102.573V28.7559Z" fill="black" />
    <path d="M42.1118 12.5187C41.5613 12.5187 41.054 12.3866 40.5899 12.1223C40.1258 11.8581 39.7561 11.4966 39.4809 11.0381C39.2111 10.5743 39.0762 10.0591 39.0762 9.4928C39.0762 8.92643 39.2111 8.414 39.4809 7.95552C39.7561 7.49164 40.1258 7.12755 40.5899 6.86326C41.054 6.59895 41.5613 6.4668 42.1118 6.4668C42.5489 6.4668 42.9563 6.54501 43.334 6.70144C43.7119 6.85786 44.0275 7.07631 44.2811 7.35679L43.6498 7.98788C43.4609 7.77752 43.2342 7.61571 42.9698 7.50243C42.7108 7.38916 42.422 7.33252 42.1036 7.33252C41.7313 7.33252 41.3832 7.42153 41.0594 7.59952C40.7356 7.77752 40.4766 8.03103 40.2823 8.36006C40.088 8.68909 39.9909 9.06667 39.9909 9.4928C39.9909 9.9189 40.088 10.2965 40.2823 10.6255C40.4766 10.9546 40.7356 11.208 41.0594 11.3861C41.3832 11.564 41.734 11.6531 42.1118 11.6531C42.4571 11.6531 42.7458 11.6018 42.9779 11.4993C43.2099 11.3969 43.4177 11.2593 43.6012 11.0866C43.7199 10.968 43.8198 10.8196 43.9007 10.6417C43.987 10.4637 44.0437 10.2695 44.0707 10.0591H42.1036V9.25006H44.9287C44.9557 9.40109 44.9692 9.55747 44.9692 9.71932C44.9692 10.0862 44.9126 10.4394 44.7992 10.7793C44.6859 11.1137 44.5051 11.4049 44.2569 11.6531C43.7119 12.2302 42.9968 12.5187 42.1118 12.5187Z" fill="black" />
    <path d="M45.8135 6.5957H49.3347V7.46142H46.7201V9.06341H49.0757V9.921H46.7201V11.523H49.3347V12.3887H45.8135V6.5957Z" fill="black" />
    <path d="M51.4324 7.46142H49.8135V6.5957H53.958V7.46142H52.3391V12.3887H51.4324V7.46142Z" fill="black" />
    <path d="M56.3291 6.5957H57.2357V12.3887H56.3291V6.5957Z" fill="black" />
    <path d="M59.5292 7.46142H57.9102V6.5957H62.0548V7.46142H60.4358V12.3887H59.5292V7.46142Z" fill="black" />
    <path d="M66.9787 12.5187C66.4175 12.5187 65.9075 12.3866 65.4488 12.1223C64.9901 11.8526 64.6286 11.4858 64.3641 11.022C64.1051 10.558 63.9756 10.0483 63.9756 9.4928C63.9756 8.93721 64.1051 8.43018 64.3641 7.9717C64.6286 7.50783 64.9901 7.14103 65.4488 6.87134C65.9075 6.60164 66.4175 6.4668 66.9787 6.4668C67.54 6.4668 68.0473 6.60164 68.5006 6.87134C68.9593 7.14103 69.3209 7.50783 69.5853 7.9717C69.8497 8.43018 69.982 8.93721 69.982 9.4928C69.982 10.0483 69.8497 10.558 69.5853 11.022C69.3263 11.4858 68.9674 11.8526 68.5087 12.1223C68.05 12.3866 67.54 12.5187 66.9787 12.5187ZM66.9787 11.6531C67.3619 11.6531 67.7127 11.5614 68.0311 11.3779C68.3495 11.1945 68.6005 10.941 68.7839 10.6174C68.9674 10.2884 69.0592 9.9135 69.0592 9.4928C69.0592 9.07206 68.9674 8.69988 68.7839 8.37624C68.6005 8.04722 68.3495 7.791 68.0311 7.60761C67.7127 7.42422 67.3619 7.33252 66.9787 7.33252C66.5956 7.33252 66.2449 7.42422 65.9265 7.60761C65.608 7.791 65.3544 8.04722 65.1655 8.37624C64.982 8.69988 64.8903 9.07206 64.8903 9.4928C64.8903 9.9135 64.982 10.2884 65.1655 10.6174C65.3544 10.941 65.608 11.1945 65.9265 11.3779C66.2449 11.5614 66.5956 11.6531 66.9787 11.6531Z" fill="black" />
    <path d="M70.8154 6.5957H71.8921L74.4824 10.811H74.531L74.4824 9.69449V6.5957H75.381V12.3887H74.4339L71.714 7.95497H71.6654L71.714 9.0715V12.3887H70.8154V6.5957Z" fill="black" />
    <path d="M26.9892 23.0295C30.0199 21.3508 32.3177 20.0718 32.5157 19.9725C33.1491 19.6325 33.8034 18.7331 32.5157 18.0346C32.1 17.8149 29.8613 16.5755 26.9892 14.9775L23.0078 19.0332L26.989 23.0295H26.9892Z" fill="#FFD900" />
    <path d="M23.0087 19.0332L10.3311 31.9213C10.6284 31.9611 10.9644 31.8815 11.3606 31.6618C12.1923 31.2028 21.0074 26.3468 26.9903 23.0303L23.0087 19.0332Z" fill="#F43249" />
    <path d="M23.0086 19.0331L26.9898 14.9971C26.9898 14.9971 12.2523 6.88455 11.3605 6.40587C11.0249 6.20459 10.6484 6.14508 10.3115 6.20459L23.0086 19.033V19.0331Z" fill="#00EE76" />
    <path d="M23.0076 19.0334L10.3103 6.20508C9.79487 6.32518 9.35938 6.7844 9.35938 7.72318V30.4027C9.35938 31.2625 9.69645 31.8816 10.3298 31.9412L23.0074 19.0332L23.0076 19.0334Z" fill="#00D3FF" />
  </g>
  <defs>
    <clipPath id="clip0_3428_1809">
      <rect width="128" height="37.9259" fill="white" />
    </clipPath>
  </defs>
</svg>
  