<svg width="50" height="50" viewBox="0 0 50 50" fill="none" xmlns="http://www.w3.org/2000/svg">
<path d="M25 50C38.8071 50 50 38.8071 50 25C50 11.1929 38.8071 0 25 0C11.1929 0 0 11.1929 0 25C0 38.8071 11.1929 50 25 50Z" fill="#E5EBF0"/>
<path d="M25 40C16.7188 40 10 33.2813 10 25C10 16.7188 16.7188 10 25 10C33.2813 10 40 16.7188 40 25C40 33.2813 33.2813 40 25 40ZM25 11.5625C17.6042 11.5625 11.5625 17.6042 11.5625 25C11.5625 32.3958 17.6042 38.4375 25 38.4375C32.3958 38.4375 38.4375 32.3958 38.4375 25C38.4375 17.6042 32.3958 11.5625 25 11.5625Z" fill="#13273F"/>
<path d="M19.427 31.3542C19.2186 31.3542 19.0103 31.3021 18.854 31.1458C18.5415 30.8333 18.5415 30.3646 18.854 30.0521L30.052 18.8542C30.3645 18.5417 30.8332 18.5417 31.1457 18.8542C31.4582 19.1667 31.4582 19.6354 31.1457 19.9479L19.9478 31.1458C19.8436 31.3021 19.6353 31.3542 19.427 31.3542Z" fill="#13273F"/>
<path d="M21.1461 23.8021C19.7919 23.8021 18.6982 22.7083 18.6982 21.3542C18.6982 20 19.7919 18.9062 21.1461 18.9062C22.5003 18.9062 23.594 20 23.594 21.3542C23.594 22.7083 22.5003 23.8021 21.1461 23.8021ZM21.1461 20.5208C20.6774 20.5208 20.2607 20.9376 20.2607 21.4062C20.2607 21.8751 20.6774 22.2917 21.1461 22.2917C21.6149 22.2917 22.0315 21.8751 22.0315 21.4062C22.0315 20.9376 21.6669 20.5208 21.1461 20.5208Z" fill="#13273F"/>
<path d="M28.4895 31.4063C27.1353 31.4063 26.0415 30.3126 26.0415 28.9584C26.0415 27.6043 27.1353 26.5105 28.4895 26.5105C29.8436 26.5105 30.9374 27.6043 30.9374 28.9584C30.8853 30.3126 29.7915 31.4063 28.4895 31.4063ZM28.4895 28.1251C28.0207 28.1251 27.604 28.5418 27.604 29.0105C27.604 29.4793 28.0207 29.8959 28.4895 29.8959C28.9582 29.8959 29.3749 29.4793 29.3749 29.0105C29.3228 28.4897 28.9582 28.1251 28.4895 28.1251Z" fill="#13273F"/>
</svg>
