<svg width="50" height="50" viewBox="0 0 50 50" fill="none" xmlns="http://www.w3.org/2000/svg">
<circle cx="25" cy="25" r="25" fill="#E5EBF0"/>
<path d="M29.7917 31.8229H20.2084C19.8959 31.8229 19.6354 31.6666 19.5313 31.4062C19.375 31.1458 19.4271 30.8333 19.6354 30.5729L24.0625 24.8958L19.6875 19.4791C19.4792 19.2708 19.4792 18.9062 19.5834 18.6458C19.6875 18.3854 20 18.1771 20.3125 18.1771H29.7917C30.2084 18.1771 30.5729 18.5416 30.5729 18.9583V21.7187C30.5729 22.1354 30.2084 22.5 29.7917 22.5C29.375 22.5 29.0104 22.1354 29.0104 21.7187V19.7396H21.875L25.625 24.375C25.8334 24.6354 25.8334 25.0521 25.625 25.3646L21.7709 30.2604H29.0104V28.4375C29.0104 28.0208 29.375 27.6562 29.7917 27.6562C30.2084 27.6562 30.5729 28.0208 30.5729 28.4375V31.0416C30.5729 31.4583 30.2604 31.8229 29.7917 31.8229Z" fill="#13273F"/>
<path d="M25 40C16.7188 40 10 33.2813 10 25C10 16.7188 16.7188 10 25 10C33.2813 10 40 16.7188 40 25C40 33.2813 33.2813 40 25 40ZM25 11.5625C17.6042 11.5625 11.5625 17.6042 11.5625 25C11.5625 32.3958 17.6042 38.4375 25 38.4375C32.3958 38.4375 38.4375 32.3958 38.4375 25C38.4375 17.6042 32.3958 11.5625 25 11.5625Z" fill="#13273F"/>
</svg>
