<svg width="34" height="34" viewBox="0 0 34 34" fill="none" xmlns="http://www.w3.org/2000/svg">
<circle cx="17" cy="17" r="17" fill="#39D1AB" fill-opacity="0.17"/>
<g clip-path="url(#clip0_253_497)">
<path d="M9.68008 22.461L20.9053 11.2358L14.5306 11.2358C14.1018 11.2358 13.7512 10.8852 13.7512 10.4563C13.7512 10.0275 14.1018 9.67688 14.5306 9.67688L23.5624 9.67978L23.5624 18.7145C23.5624 18.9289 23.4755 19.1259 23.3364 19.265C23.1973 19.4041 23.0003 19.491 22.7859 19.491C22.357 19.491 22.0064 19.1404 22.0064 18.7116L22.0064 12.3369L10.7812 23.5621C10.4769 23.8664 9.98433 23.8664 9.68008 23.5621C9.37584 23.2579 9.37584 22.7653 9.68008 22.461Z" fill="#39D1AB"/>
</g>
<defs>
<clipPath id="clip0_253_497">
<rect width="19.6326" height="13.2318" fill="white" transform="matrix(-0.707107 0.707107 0.707107 0.707107 18.8823 5)"/>
</clipPath>
</defs>
</svg>
