<svg width="50" height="50" viewBox="0 0 50 50" fill="none" xmlns="http://www.w3.org/2000/svg">
<path d="M25 50C38.8071 50 50 38.8071 50 25C50 11.1929 38.8071 0 25 0C11.1929 0 0 11.1929 0 25C0 38.8071 11.1929 50 25 50Z" fill="#2CD19E" fill-opacity="0.17"/>
<path d="M40.309 21.2364L35.8363 10.4909C35.7272 10.2182 35.3999 10 35.0726 10H14.509C14.1817 10 13.909 10.2182 13.7999 10.4909L9.32714 21.2364C8.89077 22.2727 8.94532 23.4182 9.43623 24.4C9.81805 25.1091 10.309 25.7091 11.0181 26.1455V37.8182C11.0181 39.0182 12.109 40 13.4726 40H36.2726C37.6363 40 38.7272 39.0182 38.7272 37.8182V27.5636V26.1455C39.3817 25.7091 39.9272 25.1091 40.309 24.4C40.6908 23.4182 40.7454 22.2727 40.309 21.2364ZM36.7635 25.2182C35.8908 25.3818 35.0181 25.2182 34.309 24.6182C33.5999 24.0182 33.2181 23.2545 33.2181 22.3273C33.2181 21.8909 32.8363 21.5091 32.3999 21.5091C31.9635 21.5091 31.5817 21.8909 31.5817 22.3273C31.5272 23.3636 30.9817 24.2909 30.0544 24.7818C29.1817 25.2727 28.0363 25.2727 27.1635 24.7818C26.2908 24.2909 25.6908 23.3091 25.6363 22.3273C25.6363 21.8909 25.2545 21.5091 24.8181 21.5091C24.3817 21.5091 23.9999 21.8909 23.9999 22.3273C23.9454 23.3636 23.3999 24.2909 22.4726 24.7818C21.5999 25.2727 20.4545 25.2727 19.5817 24.7818C18.709 24.2909 18.109 23.3091 18.0545 22.3273C18.0545 21.8909 17.6726 21.5091 17.2363 21.5091C16.7999 21.5091 16.4181 21.8909 16.4181 22.3273C16.4181 23.2 15.9817 24.0727 15.3272 24.6182C14.6181 25.1636 13.7454 25.3818 12.8726 25.2182C11.9999 25.0545 11.2908 24.4545 10.8545 23.6909C10.5817 23.1455 10.5272 22.4909 10.7999 21.8909L15.0545 11.6364H34.5272L38.7817 21.8364C39.0544 22.4364 38.9999 23.0909 38.7272 23.6364C38.3454 24.4545 37.6363 25 36.7635 25.2182ZM36.1635 38.3636H13.4181C12.9817 38.3636 12.5999 38.0909 12.5999 37.8182V27.8909V26.8C13.4726 26.9636 14.3999 26.9091 15.2181 26.5273C16.0363 26.2 16.7454 25.6545 17.2363 24.8909C18.109 26.0909 19.4726 26.8545 20.9999 26.8545C22.5272 26.8545 23.8908 26.1455 24.7635 24.8909C25.6363 26.0909 26.9999 26.8545 28.5272 26.8545C30.0544 26.8545 31.4181 26.1455 32.2908 24.8909C32.7817 25.6 33.4908 26.1455 34.309 26.5273C35.1272 26.8545 36.0544 26.9636 36.9272 26.8V27.8909V37.8182C36.9817 38.0909 36.5999 38.3636 36.1635 38.3636Z" fill="#2CD19E"/>
<path d="M28.2544 29.3092L23.618 34.1092L21.3816 31.8183C21.0544 31.491 20.5635 31.491 20.2362 31.7637C19.9089 32.091 19.9089 32.5819 20.1816 32.9092L22.9635 35.8546C23.1271 36.0183 23.3453 36.1274 23.5635 36.1274C23.7816 36.1274 23.9998 36.0183 24.1635 35.8546L29.3998 30.4546C29.7271 30.1274 29.7271 29.6365 29.3998 29.3092C29.0725 28.9819 28.5271 29.0365 28.2544 29.3092Z" fill="#2CD19E"/>
</svg>
