<svg width="50" height="50" viewBox="0 0 50 50" fill="none" xmlns="http://www.w3.org/2000/svg">
<path d="M25 50C38.8071 50 50 38.8071 50 25C50 11.1929 38.8071 0 25 0C11.1929 0 0 11.1929 0 25C0 38.8071 11.1929 50 25 50Z" fill="#2CD19E" fill-opacity="0.17"/>
<path d="M25.0001 24.1667C23.5939 24.1667 22.448 23.3854 22.448 22.4479C22.448 21.5104 23.5939 20.7292 25.0001 20.7292C25.7814 20.7292 26.5105 20.9895 26.9793 21.4062C27.3439 21.7188 27.8647 21.6667 28.1772 21.3542C28.4897 20.9896 28.4376 20.4688 28.1251 20.1562C27.5522 19.6353 26.7189 19.2707 25.8855 19.1145V18.177C25.8855 17.7082 25.521 17.3438 25.0522 17.3438C24.5835 17.3438 24.2189 17.7082 24.2189 18.177V19.1145C22.2918 19.427 20.8335 20.7813 20.8335 22.4479C20.8335 24.3229 22.7605 25.8333 25.1043 25.8333C26.5105 25.8333 27.6564 26.6145 27.6564 27.552C27.6564 28.4895 26.5105 29.2708 25.1043 29.2708C24.323 29.2708 23.5939 29.0103 23.1251 28.5938C22.7605 28.2812 22.2397 28.3333 21.9272 28.6458C21.6147 29.0104 21.6668 29.5312 21.9793 29.8438C22.5522 30.3645 23.3855 30.7292 24.2189 30.8854V31.8229C24.2189 32.2917 24.5835 32.6562 25.0522 32.6562C25.521 32.6562 25.8855 32.2917 25.8855 31.8229V30.8854C27.8126 30.5729 29.271 29.2187 29.271 27.552C29.271 25.677 27.3439 24.1667 25.0001 24.1667Z" fill="#2CD19E"/>
<path d="M25 40C16.7188 40 10 33.2813 10 25C10 16.7188 16.7188 10 25 10C33.2813 10 40 16.7188 40 25C40 33.2813 33.2813 40 25 40ZM25 11.5625C17.6042 11.5625 11.5625 17.6042 11.5625 25C11.5625 32.3958 17.6042 38.4375 25 38.4375C32.3958 38.4375 38.4375 32.3958 38.4375 25C38.4375 17.6042 32.3958 11.5625 25 11.5625Z" fill="#2CD19E"/>
</svg>
