<svg width="18" height="18" viewBox="0 0 18 18" fill="none" xmlns="http://www.w3.org/2000/svg">
<path d="M14.2502 3L15.7502 1.5L11.6252 5.625M14.2502 3L16.5002 5.25L13.8752 7.875L11.6252 5.625M14.2502 3L11.6252 5.625M8.54196 8.70825C7.76397 7.95685 6.72199 7.54107 5.64043 7.55047C4.55886 7.55987 3.52426 7.99369 2.75945 8.7585C1.99465 9.52331 1.56082 10.5579 1.55143 11.6395C1.54203 12.721 1.9578 13.763 2.70921 14.541C3.09131 14.9283 3.54623 15.2361 4.0478 15.4468C4.54936 15.6575 5.08765 15.7669 5.63168 15.7688C6.17571 15.7706 6.71472 15.6648 7.21768 15.4574C7.72065 15.2501 8.17763 14.9453 8.56231 14.5606C8.947 14.1759 9.25179 13.7189 9.45914 13.216C9.66649 12.713 9.7723 12.174 9.77048 11.63C9.76865 11.0859 9.65924 10.5477 9.44852 10.0461C9.23781 9.54453 8.92996 9.0896 8.54271 8.7075L8.54196 8.70825ZM8.54196 8.70825L11.6252 5.625" stroke="white" stroke-width="1.5" stroke-linecap="round" stroke-linejoin="round"/>
</svg>
