<svg width="39" height="39" viewBox="0 0 39 39" fill="none" xmlns="http://www.w3.org/2000/svg">
  <circle cx="19.5" cy="19.5" r="19" stroke="#C2CEDB" />
  <g clip-path="url(#clip0_567_703)">
    <path d="M25.9967 26V25.9994H25.9999V21.2317C25.9999 18.8992 25.4978 17.1025 22.7711 17.1025C21.4602 17.1025 20.5806 17.8219 20.2214 18.5038H20.1835V17.3203H17.5981V25.9994H20.2902V21.7018C20.2902 20.5703 20.5047 19.4761 21.906 19.4761C23.2867 19.4761 23.3073 20.7675 23.3073 21.7744V26H25.9967Z" fill="#13273F" />
    <path d="M13.2148 17.3209H15.9102V26H13.2148V17.3209Z" fill="#13273F" />
    <path d="M14.5611 13C13.6993 13 13 13.6993 13 14.5611C13 15.4229 13.6993 16.1368 14.5611 16.1368C15.4229 16.1368 16.1222 15.4229 16.1222 14.5611C16.1216 13.6993 15.4223 13 14.5611 13V13Z" fill="#13273F" />
  </g>
  <defs>
    <clipPath id="clip0_567_703">
      <rect width="13" height="13" fill="white" transform="translate(13 13)" />
    </clipPath>
  </defs>
</svg>
  