<svg width="16" height="18" viewBox="0 0 16 18" fill="none" xmlns="http://www.w3.org/2000/svg">
  <path d="M7.9731 9.11114C10.3883 9.11114 12.3642 7.11123 12.3642 4.66671V4.44443C12.3642 1.99991 10.3883 0 7.9731 0C5.55794 0 3.58203 1.99991 3.58203 4.44443V4.66671C3.58203 7.11107 5.55794 9.11114 7.9731 9.11114Z" fill="#6C6C8A" />
  <path d="M7.90761 18.0002C11.0034 18.0002 13.7697 16.5113 15.5481 14.2225C16.3385 13.178 15.9872 11.667 14.8454 11.0669C14.3405 10.8225 13.7916 10.667 13.1988 10.667H3.0993C2.19909 10.667 1.38678 11.0003 0.728116 11.5337C-0.150021 12.267 -0.237961 13.6002 0.486599 14.4671C2.24323 16.6223 4.92159 18.0002 7.90792 18.0002H7.90761Z" fill="#6C6C8A" />
</svg>
  