<svg width="13" height="14" viewBox="0 0 13 14" fill="none" xmlns="http://www.w3.org/2000/svg">
<g clip-path="url(#clip0)">
<path d="M11.8462 5.88462H7.69231V1.65385C7.69231 1.03846 7.15385 0.5 6.53846 0.5C5.92308 0.5 5.38462 1.03846 5.38462 1.65385V5.88462H1.15385C0.538462 5.88462 0 6.34615 0 7.03846C0 7.73077 0.538462 8.19231 1.15385 8.19231H5.38462V12.4231C5.38462 13.0385 5.92308 13.5769 6.53846 13.5769C7.15385 13.5769 7.69231 13.0385 7.69231 12.4231V8.19231H11.9231C12.5385 8.19231 13.0769 7.65385 13.0769 7.03846C13.0769 6.42308 12.4615 5.88462 11.8462 5.88462Z" fill="current"/>
</g>
<defs>
<clipPath id="clip0">
<rect width="13" height="13" fill="current" transform="translate(0 0.5)"/>
</clipPath>
</defs>
</svg>
