<svg width="32" height="32" viewBox="0 0 32 32" fill="none" xmlns="http://www.w3.org/2000/svg">
<g clip-path="url(#clip0)">
<path d="M15.8005 15.6416C16.8296 15.6558 17.8507 15.4599 18.8015 15.0659C19.7522 14.672 20.6127 14.0882 21.3301 13.3504C22.0679 12.6329 22.6516 11.7725 23.0456 10.8217C23.4395 9.87094 23.6354 8.84983 23.6213 7.82078C23.6354 6.79174 23.4395 5.77063 23.0456 4.81987C22.6516 3.86911 22.0679 3.00869 21.3301 2.29119C20.6126 1.5534 19.7522 0.969693 18.8014 0.575745C17.8507 0.181797 16.8296 -0.0141145 15.8005 -1.45234e-05C14.7715 -0.0141896 13.7503 0.181688 12.7996 0.57564C11.8488 0.969593 10.9884 1.55334 10.2709 2.29119C9.53308 3.00864 8.94933 3.86906 8.55538 4.81983C8.16142 5.7706 7.96555 6.79173 7.97972 7.82078C7.96562 8.84983 8.16153 9.87094 8.55548 10.8217C8.94943 11.7725 9.53314 12.6329 10.2709 13.3504C10.9885 14.0881 11.8489 14.6718 12.7997 15.0657C13.7504 15.4597 14.7715 15.6556 15.8005 15.6416ZM15.8005 2.28735C16.5291 2.27346 17.2527 2.41036 17.9258 2.68945C18.599 2.96853 19.2072 3.38378 19.7122 3.90911C20.2375 4.41413 20.6528 5.02232 20.9319 5.69547C21.2109 6.36862 21.3478 7.0922 21.334 7.82078C21.3478 8.54937 21.2109 9.27295 20.9319 9.9461C20.6528 10.6193 20.2375 11.2274 19.7122 11.7325C19.2071 12.2576 18.5989 12.6727 17.9257 12.9515C17.2526 13.2304 16.529 13.3671 15.8005 13.3529C15.072 13.367 14.3485 13.2303 13.6754 12.9514C13.0022 12.6726 12.394 12.2576 11.8888 11.7325C11.3637 11.2274 10.9486 10.6192 10.6698 9.94599C10.3909 9.27283 10.2542 8.54928 10.2684 7.82078C10.2542 7.09229 10.3909 6.36874 10.6698 5.69558C10.9486 5.02242 11.3637 4.4142 11.8888 3.90911C12.3939 3.38395 13.0022 2.9689 13.6753 2.69003C14.3485 2.41116 15.072 2.2745 15.8005 2.28863V2.28735Z" fill="currentColor"/>
<path d="M29.3207 24.4735C29.2715 23.797 29.186 23.1236 29.0647 22.4563C28.9435 21.7685 28.7772 21.0895 28.5668 20.4236C28.3528 19.7592 28.0705 19.1188 27.7246 18.5126C27.3806 17.8989 26.9495 17.3384 26.4446 16.8486C25.9073 16.343 25.2769 15.9466 24.5886 15.6812C23.8359 15.3909 23.035 15.2459 22.2282 15.2537C21.857 15.2537 21.5153 15.3945 20.8727 15.8131C20.5015 16.055 20.0689 16.334 19.5927 16.6412C19.0856 16.9436 18.543 17.1823 17.9774 17.3516C16.6989 17.7763 15.3173 17.7763 14.0388 17.3516C13.4703 17.1828 12.9251 16.9437 12.4158 16.6399C11.9345 16.3327 11.5018 16.0537 11.1294 15.8105C10.4894 15.3919 10.145 15.2511 9.77513 15.2511C8.96832 15.2436 8.1674 15.3891 7.41481 15.6799C6.72591 15.945 6.09512 16.3415 5.55753 16.8473C5.0526 17.3371 4.62143 17.8976 4.27753 18.5113C3.9317 19.118 3.64945 19.7589 3.43529 20.4236C3.22552 21.0896 3.05961 21.7686 2.93865 22.4563C2.81706 23.124 2.7316 23.7978 2.68265 24.4748C2.64041 25.0815 2.61865 25.7139 2.61865 26.3539C2.61865 28.0639 3.16521 29.4515 4.24297 30.478C5.32073 31.5046 6.70185 31.9999 8.40169 31.9999H23.5978C25.2977 31.9999 26.6967 31.4879 27.7604 30.4767C28.8241 29.4655 29.3847 28.0627 29.3847 26.3526C29.3847 25.7113 29.363 25.079 29.3207 24.4735ZM9.58057 17.5359C9.64585 17.5731 9.74313 17.6307 9.88009 17.7203C10.2718 17.9763 10.7108 18.2591 11.1844 18.5612C11.8554 18.9687 12.5748 19.2904 13.3258 19.5187C15.062 20.0914 16.9362 20.0914 18.6724 19.5187C19.4235 19.2898 20.1429 18.9677 20.8138 18.5599C21.3258 18.2348 21.7482 17.9596 22.1169 17.719C22.2551 17.6294 22.3524 17.5705 22.4177 17.5347C22.8706 17.5472 23.3181 17.6363 23.7412 17.7983C24.1545 17.955 24.5335 18.1901 24.8574 18.4908C25.2031 18.8303 25.4977 19.2184 25.7316 19.6428C25.9996 20.1118 26.2184 20.6072 26.3844 21.1212C26.564 21.6911 26.706 22.2722 26.8094 22.8607C26.9165 23.4447 26.9925 24.0339 27.0372 24.6259V24.6335C27.0756 25.1839 27.0961 25.7638 27.0961 26.3539C27.0961 27.4278 26.7966 28.2342 26.1822 28.8204C25.5678 29.4067 24.705 29.7164 23.5978 29.7164H8.40169C7.29321 29.7164 6.44841 29.4246 5.81737 28.8204C5.18633 28.2163 4.90345 27.4278 4.90345 26.3539C4.90345 25.7651 4.92265 25.1865 4.96105 24.6335C5.00513 24.0389 5.08119 23.4472 5.18889 22.8607C5.29235 22.2718 5.4343 21.6903 5.61385 21.1199C5.78171 20.6058 6.00219 20.1104 6.27177 19.6415C6.50591 19.2173 6.80039 18.8292 7.14601 18.4895C7.47021 18.1886 7.8497 17.9535 8.26345 17.7971C8.68468 17.6366 9.12997 17.5483 9.58057 17.5359Z" fill="currentColor"/>
</g>
<defs>
<clipPath id="clip0">
<rect width="32" height="32" fill="white"/>
</clipPath>
</defs>
</svg>
