<svg width="34" height="34" viewBox="0 0 34 34" fill="none" xmlns="http://www.w3.org/2000/svg">
<circle cx="17" cy="17" r="17" fill="#EF6355" fill-opacity="0.17"/>
<g clip-path="url(#clip0_253_421)">
<path d="M9.68008 10.7778L20.9053 22.003L14.5306 22.003C14.1018 22.003 13.7512 22.3536 13.7512 22.7825C13.7512 23.2113 14.1018 23.5619 14.5306 23.5619L23.5624 23.559L23.5624 14.5243C23.5624 14.3099 23.4755 14.1129 23.3364 13.9738C23.1973 13.8347 23.0003 13.7478 22.7859 13.7478C22.357 13.7478 22.0064 14.0984 22.0064 14.5272L22.0064 20.9019L10.7812 9.67667C10.4769 9.37242 9.98433 9.37242 9.68008 9.67667C9.37584 9.98091 9.37584 10.4735 9.68008 10.7778Z" fill="#EF6355"/>
</g>
<defs>
<clipPath id="clip0_253_421">
<rect width="19.6326" height="13.2318" fill="white" transform="translate(18.8823 28.2388) rotate(-135)"/>
</clipPath>
</defs>
</svg>
