<svg width="50" height="50" viewBox="0 0 50 50" fill="none" xmlns="http://www.w3.org/2000/svg">
<path d="M25 50C38.8071 50 50 38.8071 50 25C50 11.1929 38.8071 0 25 0C11.1929 0 0 11.1929 0 25C0 38.8071 11.1929 50 25 50Z" fill="#EF6355" fill-opacity="0.17"/>
<path d="M40.309 21.2364L35.8363 10.4909C35.7272 10.2182 35.3999 10 35.0726 10H14.509C14.1817 10 13.909 10.2182 13.7999 10.4909L9.32714 21.2364C8.89077 22.2727 8.94532 23.4182 9.43623 24.4C9.81805 25.1091 10.309 25.7091 11.0181 26.1455V37.8182C11.0181 39.0182 12.109 40 13.4726 40H36.2726C37.6363 40 38.7272 39.0182 38.7272 37.8182V27.5636V26.1455C39.3817 25.7091 39.9272 25.1091 40.309 24.4C40.6908 23.4182 40.7454 22.2727 40.309 21.2364ZM36.9817 37.8182C36.9817 38.1455 36.5999 38.3636 36.1635 38.3636H13.4181C12.9817 38.3636 12.5999 38.0909 12.5999 37.8182V27.8909V26.8C13.4726 26.9636 14.3999 26.9091 15.2181 26.5273C16.0363 26.2 16.7454 25.6545 17.2363 24.8909C18.109 26.0909 19.4726 26.8545 20.9999 26.8545C22.5272 26.8545 23.8908 26.1455 24.7635 24.8909C25.6363 26.0909 26.9999 26.8545 28.5272 26.8545C30.0544 26.8545 31.4181 26.1455 32.2908 24.8909C32.7817 25.6 33.4908 26.1455 34.309 26.5273C35.1272 26.8545 36.0544 26.9636 36.9272 26.8V27.8909V37.8182H36.9817ZM38.7272 23.6364C38.3454 24.4545 37.5817 25 36.709 25.1636C35.8363 25.3273 34.9635 25.1636 34.2544 24.5636C33.5454 23.9636 33.1635 23.2 33.1635 22.2727C33.1635 21.8364 32.7817 21.4545 32.3454 21.4545C31.909 21.4545 31.5272 21.8364 31.5272 22.2727C31.4726 23.3091 30.9272 24.2364 29.9999 24.7273C29.1272 25.2182 27.9817 25.2182 27.109 24.7273C26.2363 24.2364 25.6363 23.2545 25.5817 22.2727C25.5817 21.8364 25.1999 21.4545 24.7635 21.4545C24.3272 21.4545 23.9454 21.8364 23.9454 22.2727C23.8908 23.3091 23.3454 24.2364 22.4181 24.7273C21.5454 25.2182 20.3999 25.2182 19.5272 24.7273C18.6545 24.2364 18.0545 23.2545 17.9999 22.2727C17.9999 21.8364 17.6181 21.4545 17.1817 21.4545C16.7454 21.4545 16.3635 21.8364 16.3635 22.2727C16.3635 23.1455 15.9272 24.0182 15.2726 24.5636C14.5635 25.1091 13.6908 25.3273 12.8181 25.1636C11.9454 25 11.2363 24.4 10.7999 23.6364C10.5272 23.0909 10.4726 22.4364 10.7454 21.8364L15.0545 11.6364H34.5272L38.7817 21.8364C39.0544 22.4364 38.9999 23.0909 38.7272 23.6364Z" fill="#EF6355"/>
<path d="M27.9816 29.0364C27.6544 28.7092 27.1635 28.7092 26.8362 29.0364L24.8726 31.0001L22.9089 29.0364C22.5816 28.7092 22.0907 28.7092 21.7635 29.0364C21.4362 29.3637 21.4362 29.8546 21.7635 30.1819L23.7271 32.1455L21.7635 34.1092C21.4362 34.4364 21.4362 34.9274 21.7635 35.2546C21.9271 35.4183 22.1453 35.4728 22.3635 35.4728C22.5816 35.4728 22.7998 35.4183 22.9635 35.2546L24.9271 33.291L26.8907 35.2546C27.0544 35.4183 27.2726 35.4728 27.4907 35.4728C27.7089 35.4728 27.9271 35.4183 28.0907 35.2546C28.418 34.9274 28.418 34.4364 28.0907 34.1092L26.1271 32.1455L28.0907 30.1819C28.3089 29.8546 28.3089 29.3637 27.9816 29.0364Z" fill="#EF6355"/>
</svg>
