<svg width="39" height="39" viewBox="0 0 39 39" fill="none" xmlns="http://www.w3.org/2000/svg">
  <circle cx="19.5" cy="19.5" r="19" stroke="#C2CEDB" />
  <path d="M17.0884 25.0701C21.9943 25.0701 24.6771 20.8115 24.6771 17.1187C24.6771 16.9977 24.6747 16.8773 24.6696 16.7575C25.1903 16.363 25.6429 15.8707 26 15.3103C25.5221 15.533 25.0078 15.6827 24.4683 15.7504C25.019 15.4043 25.4417 14.857 25.6411 14.2046C25.1258 14.5247 24.5551 14.7573 23.9475 14.8829C23.4608 14.3397 22.7678 14 22.0006 14C20.5277 14 19.3332 15.2515 19.3332 16.7942C19.3332 17.0136 19.3567 17.2269 19.4024 17.4315C17.1857 17.3146 15.22 16.2026 13.9046 14.5116C13.6757 14.9246 13.5435 15.4044 13.5435 15.9163C13.5435 16.8858 14.0144 17.7419 14.7304 18.2425C14.2928 18.2284 13.8818 18.1025 13.5225 17.893C13.5221 17.9048 13.5221 17.9162 13.5221 17.9287C13.5221 19.2822 14.4414 20.4122 15.662 20.6683C15.4378 20.7322 15.2019 20.7666 14.9587 20.7666C14.7871 20.7666 14.6198 20.7489 14.4573 20.7162C14.7969 21.8266 15.7816 22.6346 16.9489 22.6573C16.036 23.407 14.8861 23.8535 13.6362 23.8535C13.4213 23.8535 13.2088 23.8406 13 23.8148C14.1804 24.6076 15.5821 25.0702 17.0885 25.0702" fill="#13273F" />
</svg>
  