<svg width="85" height="24" viewBox="0 0 85 24" fill="none" xmlns="http://www.w3.org/2000/svg">
  <g clip-path="url(#clip0_2934_1737)">
    <path d="M0 8.67116H1.871C1.97622 7.10872 2.28266 5.77228 2.79033 4.66187C3.29799 3.55146 3.96401 2.65521 4.78838 1.97312C5.62993 1.27945 6.60091 0.76905 7.64183 0.47317C8.77758 0.150095 9.95181 -0.00903217 11.1305 0.000395593V4.77421C10.6017 4.77942 10.0751 4.84611 9.56097 4.97301C9.01 5.10054 8.48446 5.32386 8.00719 5.63328C7.53044 5.94223 7.12473 6.35332 6.81799 6.83825C6.50234 7.33338 6.33321 7.9554 6.31059 8.7043L10.6547 8.67116L10.5916 13.0878H6.31295V23.4807H1.64926L1.68082 13.1209H0V8.67116Z" fill="#13273F" />
    <path d="M22.6089 23.6792C21.3569 23.6829 20.1167 23.4321 18.96 22.9415C17.8034 22.4508 16.7533 21.73 15.8706 20.8207C15.0067 19.9214 14.3179 18.8619 13.841 17.6988C13.3497 16.4956 13.0967 15.2045 13.0967 13.9004C13.0967 12.5963 13.3497 11.3052 13.841 10.102C14.7956 7.76098 16.6132 5.89988 18.8992 4.92253C20.074 4.4193 21.3347 4.16016 22.6081 4.16016C23.8815 4.16016 25.1422 4.4193 26.3169 4.92253C27.4515 5.41112 28.4854 6.11562 29.3637 6.9987C30.2519 7.90256 30.9559 8.9781 31.4349 10.1629C31.9139 11.3477 32.1583 12.6181 32.154 13.9004V15.8158H18.1377C18.4925 16.7182 19.1008 17.4925 19.8856 18.0406C20.6843 18.6128 21.6382 18.9139 22.6128 18.9013C23.2259 18.9053 23.8341 18.7895 24.4049 18.5603C24.9504 18.3403 25.4495 18.0149 25.875 17.6018L29.3314 20.8506C28.4679 21.736 27.445 22.4416 26.3193 22.9284C25.1453 23.4346 23.8827 23.6901 22.6089 23.6792ZM17.9475 12.5031H27.2702C26.9852 11.4816 26.3843 10.5824 25.5578 9.94041C24.7129 9.26856 23.7299 8.9329 22.6089 8.93344C22.0753 8.93071 21.5449 9.01837 21.0393 9.19286C20.5477 9.36363 20.087 9.61619 19.6757 9.94041C19.2672 10.2597 18.909 10.6413 18.6135 11.0718C18.316 11.508 18.091 11.9917 17.9475 12.5031Z" fill="#13273F" />
    <path d="M49.0236 14.1274C49.0236 13.2621 48.8966 12.5154 48.6425 11.8872C48.4148 11.2973 48.0566 10.7695 47.5961 10.3452C47.1442 9.9414 46.615 9.63863 46.0424 9.45621C45.4269 9.25766 44.785 9.15895 44.1398 9.16366C43.4985 9.15814 42.8607 9.26249 42.253 9.47237C41.6939 9.66544 41.1738 9.9612 40.7182 10.3452C40.2732 10.7261 39.9159 11.203 39.6718 11.7417C39.4113 12.3274 39.2814 12.9651 39.2914 13.6085L39.2599 23.4819H34.6901L34.627 14.1282V4.87232H39.3514L39.2883 6.65835C39.8681 5.90976 40.6275 5.32783 41.4923 4.96929C42.3323 4.60979 43.2298 4.41172 44.1398 4.38499C50.5053 4.1905 53.6881 7.5247 53.6881 14.3876L53.7197 23.4811H49.1183L49.0236 14.1274Z" fill="#13273F" />
    <path d="M75.8507 14.2577V23.4813H71.0939L71.1894 22.1623C69.7305 23.3897 68.1026 24.0033 66.3055 24.0033C65.0313 24.0103 63.7692 23.7504 62.5966 23.2396C60.2984 22.2502 58.4707 20.3772 57.506 18.0229C57.0147 16.8198 56.7617 15.5287 56.7617 14.2246C56.7617 12.9205 57.0147 11.6293 57.506 10.4262C58.4716 8.07392 60.2988 6.20285 62.5958 5.21436C63.7705 4.7106 65.0312 4.45117 66.3047 4.45117C67.5782 4.45117 68.8389 4.7106 70.0136 5.21436C72.3115 6.20233 74.1397 8.07346 75.1058 10.4262C75.6041 11.6272 75.8576 12.9197 75.8507 14.2246V14.2577ZM71.1894 14.2415C71.1939 13.5695 71.0639 12.9036 70.8074 12.285C70.309 11.0827 69.3734 10.1263 68.1986 9.61804C67.3029 9.22583 66.3127 9.1186 65.3568 9.31029C64.4008 9.50197 63.5232 9.98371 62.8381 10.6929C62.3999 11.1534 62.0491 11.6932 61.8036 12.285C61.552 12.9045 61.4225 13.5689 61.4225 14.2399C61.4225 14.9109 61.552 15.5753 61.8036 16.1949C62.2905 17.3874 63.2164 18.3357 64.3808 18.8343C64.9858 19.092 65.6345 19.2246 66.2897 19.2246C66.9449 19.2246 67.5936 19.092 68.1986 18.8343C68.7778 18.5853 69.3065 18.2279 69.7579 17.7805C70.2068 17.329 70.5636 16.7905 70.8074 16.1965C71.0638 15.5784 71.1938 14.9131 71.1894 14.2415Z" fill="#13273F" />
    <path d="M81.8124 23.8414C81.4656 23.8453 81.1216 23.7783 80.8005 23.6442C80.4794 23.51 80.1876 23.3116 79.9424 23.0605C79.6972 22.8093 79.5034 22.5106 79.3725 22.1817C79.2415 21.8529 79.176 21.5005 79.1798 21.1454V19.5186H84.4442V21.1422C84.449 21.4977 84.3843 21.8506 84.2538 22.1801C84.1234 22.5096 83.9297 22.8089 83.6844 23.0605C83.4391 23.3121 83.1471 23.5109 82.8256 23.645C82.504 23.7791 82.1595 23.8459 81.8124 23.8414Z" fill="#13273F" />
  </g>
  <defs>
    <clipPath id="clip0_2934_1737">
      <rect width="84.4444" height="24" fill="white" />
    </clipPath>
  </defs>
</svg>
  